<svg xmlns="http://www.w3.org/2000/svg" width="22" height="12" viewBox="0 0 22 12" fill="none">
  <path d="M16.7858 11.6298L20.2314 8.18419C20.7909 7.59788 21.1031 6.81859 21.1031 6.00816C21.1031 5.19773 20.7909 4.41843 20.2314 3.83213L16.7858 0.386522C16.5385 0.139119 16.2031 8.24781e-05 15.8533 3.66834e-08C15.5035 -8.24048e-05 15.168 0.138796 14.9205 0.386083C14.6731 0.63337 14.5341 0.968809 14.534 1.31861C14.5339 1.66841 14.6728 2.00391 14.9201 2.25132L17.3643 4.69638L1.31881 4.71661C0.969038 4.71661 0.633594 4.85555 0.38627 5.10288C0.138945 5.3502 0 5.68564 0 6.03541C0 6.38518 0.138945 6.72063 0.38627 6.96795C0.633594 7.21528 0.969038 7.35422 1.31881 7.35422L17.3476 7.334L14.9201 9.765C14.6799 10.0137 14.5469 10.3469 14.55 10.6927C14.553 11.0384 14.6917 11.3692 14.9362 11.6137C15.1807 11.8582 15.5115 11.9969 15.8573 12C16.203 12.003 16.5371 11.87 16.7858 11.6298Z" fill="white"/>
</svg>