<svg xmlns="http://www.w3.org/2000/svg" width="13" height="10" viewBox="0 0 13 10" fill="none">
  <path d="M11.5262 3.84618L3.30085 3.84618L5.17696 1.97006C5.39342 1.75371 5.51506 1.46023 5.51513 1.15419C5.51521 0.848154 5.3937 0.554621 5.17735 0.338168C4.961 0.121715 4.66752 7.21601e-05 4.36148 3.20944e-08C4.05544 -7.20959e-05 3.76191 0.121432 3.54546 0.337783L0.787051 3.09619C0.283036 3.60159 0 4.28623 0 5C0 5.71377 0.283036 6.39841 0.787051 6.90381L3.54546 9.66222C3.76191 9.87857 4.05544 10.0001 4.36148 10C4.66752 9.99993 4.961 9.87828 5.17735 9.66183C5.3937 9.44538 5.51521 9.15185 5.51513 8.84581C5.51506 8.53977 5.39342 8.24629 5.17696 8.02994L3.30085 6.15382L11.5262 6.15382C11.8322 6.15382 12.1257 6.03226 12.3421 5.81588C12.5584 5.59949 12.68 5.30601 12.68 5C12.68 4.69399 12.5584 4.40051 12.3421 4.18412C12.1257 3.96774 11.8322 3.84618 11.5262 3.84618Z" fill="#111827" fill-opacity="0.3"/>
</svg>