<svg width="11" height="42" viewBox="0 0 11 42" fill="none" xmlns="http://www.w3.org/2000/svg">
  <path d="M4.49565 40.9217L4.49565 0.62824C4.49565 0.308926 4.75362 0.0509491 5.07294 0.0509491C5.39225 0.0509491 5.65023 0.308926 5.65023 0.62824L5.65023 39.5272L9.15366 36.0237C9.37916 35.7982 9.74538 35.7982 9.97089 36.0237C10.1964 36.2493 10.1964 36.6155 9.97089 36.841L5.48065 41.3312C5.31468 41.4972 5.06752 41.5459 4.85104 41.4557C4.63636 41.3655 4.49565 41.1544 4.49565 40.9217Z" fill="#00C677"/>
  <path d="M2.47955e-05 36.426C2.47955e-05 36.2781 0.0559506 36.1302 0.169605 36.0183C0.395109 35.7928 0.761327 35.7928 0.986832 36.0183L5.48248 40.514C5.70799 40.7395 5.70799 41.1057 5.48248 41.3312C5.25698 41.5567 4.89076 41.5567 4.66526 41.3312L0.169605 36.8355C0.0559506 36.7219 2.47955e-05 36.574 2.47955e-05 36.426Z" fill="#00C677"/>
</svg>
