<svg xmlns="http://www.w3.org/2000/svg" width="11" height="10" viewBox="0 0 11 10" fill="none">
  <path d="M3.20069 9.18607L7.36426 5.0225L7.36426 8.20638C7.36417 8.57363 7.50998 8.92587 7.7696 9.18561C8.02922 9.44535 8.38139 9.59132 8.74864 9.59141C9.11589 9.5915 9.46813 9.44569 9.72787 9.18607C9.98761 8.92645 10.1336 8.57428 10.1337 8.20703L10.1337 3.52586C10.1325 2.66934 9.79172 1.84824 9.18607 1.24259C8.58042 0.636938 7.75932 0.296166 6.9028 0.294988L2.22163 0.294988C1.85438 0.295074 1.50221 0.441046 1.24259 0.70079C0.982967 0.960534 0.837163 1.31277 0.837249 1.68002C0.837335 2.04727 0.983306 2.39944 1.24305 2.65906C1.50279 2.91868 1.85503 3.06449 2.22228 3.0644H5.40616L1.24259 7.22797C0.982927 7.48763 0.837053 7.8398 0.837053 8.20702C0.837053 8.57423 0.982928 8.92641 1.24259 9.18607C1.50225 9.44573 1.85443 9.59161 2.22164 9.59161C2.58886 9.59161 2.94103 9.44573 3.20069 9.18607Z" fill="#008753"/>
</svg>
