<svg width="90" height="90" viewBox="0 0 90 90" fill="none" xmlns="http://www.w3.org/2000/svg">
<path d="M86.9183 28.6336C83.1318 18.9356 76.0999 10.8505 67.0206 5.75595C57.9412 0.661382 47.3763 -1.12745 37.126 0.69425C26.8756 2.51595 17.574 7.83547 10.806 15.7464C4.03805 23.6574 0.222474 33.6703 0.00942346 44.0791C-0.203627 54.4879 3.19903 64.6486 9.63761 72.8299C16.0762 81.0111 25.1523 86.7068 35.3196 88.9464C45.4868 91.1861 56.1161 89.831 65.3963 85.1123C74.6764 80.3935 82.0334 72.6029 86.2135 63.0679L85.1019 62.5806C81.0345 71.8584 73.8761 79.4389 64.8462 84.0304C55.8163 88.6219 45.4737 89.9404 35.5807 87.7612C25.6876 85.582 16.8563 80.0399 10.5914 72.0793C4.32642 64.1187 1.01553 54.232 1.22284 44.104C1.43014 33.9759 5.14281 24.233 11.7282 16.5354C18.3137 8.83781 27.3644 3.66176 37.3383 1.88919C47.3122 0.116626 57.5922 1.85721 66.4267 6.81438C75.2611 11.7716 82.1034 19.6386 85.7877 29.075L86.9183 28.6336Z" fill="#00C677"/>
<path d="M59.5545 57.4752C60.1485 58.0693 60.1485 58.9604 59.5545 59.5545C59.2574 59.8515 58.8119 60 58.5148 60C58.2178 60 57.7723 59.8515 57.4752 59.5545L45 47.0792L32.5248 59.5545C32.2277 59.8515 31.7822 60 31.4851 60C31.1881 60 30.7426 59.8515 30.4455 59.5545C29.8515 58.9604 29.8515 58.0693 30.4455 57.4752L42.9208 45L30.4455 32.5248C29.8515 31.9307 29.8515 31.0396 30.4455 30.4455C31.0396 29.8515 31.9307 29.8515 32.5248 30.4455L45 42.9208L57.4752 30.4455C58.0693 29.8515 58.9604 29.8515 59.5545 30.4455C60.1485 31.0396 60.1485 31.9307 59.5545 32.5248L47.0792 45L59.5545 57.4752Z" fill="#00C677"/>
</svg>
