<svg width="224" height="24" viewBox="0 0 224 24" fill="none" xmlns="http://www.w3.org/2000/svg">
  <path d="M20.1119 13.2C20.0639 14.288 19.8399 15.328 19.4399 16.32C19.0559 17.296 18.4879 18.168 17.7359 18.936C16.9999 19.704 16.0719 20.304 14.9519 20.736C13.8479 21.168 12.5599 21.384 11.0879 21.384C9.67988 21.384 8.35988 21.184 7.12788 20.784C5.89588 20.368 4.80788 19.76 3.86388 18.96C2.93588 18.16 2.20788 17.176 1.67988 16.008C1.16788 14.84 0.911878 13.504 0.911878 12C0.911878 10.496 1.17588 9.16 1.70388 7.992C2.23188 6.824 2.96788 5.84 3.91188 5.04C4.87188 4.24 5.97588 3.64 7.22388 3.24C8.48788 2.824 9.86388 2.616 11.3519 2.616C13.3359 2.616 15.0479 2.92 16.4879 3.528C17.9279 4.136 19.0879 4.968 19.9679 6.024C20.8479 7.08 21.4159 8.304 21.6719 9.696H16.6559C16.4959 9.088 16.1679 8.568 15.6719 8.136C15.1919 7.688 14.5839 7.352 13.8479 7.128C13.1279 6.888 12.3039 6.768 11.3759 6.768C10.2559 6.768 9.28788 6.968 8.47188 7.368C7.65588 7.752 7.02388 8.336 6.57588 9.12C6.12788 9.888 5.90388 10.848 5.90388 12C5.90388 13.168 6.14388 14.152 6.62388 14.952C7.10388 15.752 7.78388 16.352 8.66388 16.752C9.55988 17.152 10.6079 17.352 11.8079 17.352C12.9759 17.352 14.0079 17.192 14.9039 16.872C15.7999 16.536 16.5119 16.048 17.0399 15.408C17.5839 14.768 17.8959 14 17.9759 13.104L20.1119 13.2ZM12.2879 15.192V11.688H21.8399V21H18.3119L17.6159 13.872L18.5519 15.192H12.2879ZM27.9651 17.544V13.536H40.3731V17.544H27.9651ZM37.5411 3L45.7251 21H40.4211L33.5571 5.112H34.9971L28.1091 21H22.8051L30.9891 3H37.5411ZM50.8619 10.872H57.4139C58.2139 10.872 58.8379 10.688 59.2859 10.32C59.7339 9.952 59.9579 9.44 59.9579 8.784C59.9579 8.112 59.7339 7.6 59.2859 7.248C58.8379 6.88 58.2139 6.696 57.4139 6.696H50.1659L52.3979 4.32V21H47.4299V3H58.1099C59.4859 3 60.6859 3.248 61.7099 3.744C62.7339 4.224 63.5339 4.896 64.1099 5.76C64.6859 6.608 64.9739 7.616 64.9739 8.784C64.9739 9.92 64.6859 10.92 64.1099 11.784C63.5339 12.648 62.7339 13.32 61.7099 13.8C60.6859 14.28 59.4859 14.52 58.1099 14.52H50.8619V10.872ZM53.5499 12.576H59.1419L65.5979 21H59.8379L53.5499 12.576ZM84.5005 17.52L82.9645 17.832V3H87.7885V21H81.5245L71.1325 6.192L72.6445 5.88V21H67.8205V3H74.2525L84.5005 17.52ZM101.029 21.384C98.9008 21.384 97.0288 20.992 95.4128 20.208C93.8128 19.424 92.5648 18.328 91.6688 16.92C90.7888 15.512 90.3488 13.872 90.3488 12C90.3488 10.128 90.7888 8.488 91.6688 7.08C92.5648 5.672 93.8128 4.576 95.4128 3.792C97.0288 3.008 98.9008 2.616 101.029 2.616C103.173 2.616 105.045 3.008 106.645 3.792C108.245 4.576 109.493 5.672 110.389 7.08C111.285 8.488 111.733 10.128 111.733 12C111.733 13.872 111.285 15.512 110.389 16.92C109.493 18.328 108.245 19.424 106.645 20.208C105.045 20.992 103.173 21.384 101.029 21.384ZM101.029 16.944C102.197 16.944 103.205 16.744 104.053 16.344C104.901 15.944 105.549 15.376 105.997 14.64C106.461 13.904 106.693 13.024 106.693 12C106.693 10.976 106.461 10.096 105.997 9.36C105.549 8.624 104.901 8.056 104.053 7.656C103.205 7.256 102.197 7.056 101.029 7.056C99.8768 7.056 98.8768 7.256 98.0288 7.656C97.1808 8.056 96.5248 8.624 96.0608 9.36C95.5968 10.096 95.3648 10.976 95.3648 12C95.3648 13.024 95.5968 13.904 96.0608 14.64C96.5248 15.376 97.1808 15.944 98.0288 16.344C98.8768 16.744 99.8768 16.944 101.029 16.944ZM115.537 21.24C115.025 21.24 114.553 21.12 114.121 20.88C113.705 20.64 113.377 20.312 113.137 19.896C112.897 19.464 112.777 18.992 112.777 18.48C112.777 17.968 112.897 17.504 113.137 17.088C113.377 16.672 113.705 16.344 114.121 16.104C114.553 15.848 115.025 15.72 115.537 15.72C116.065 15.72 116.537 15.848 116.953 16.104C117.369 16.344 117.697 16.672 117.937 17.088C118.177 17.504 118.297 17.968 118.297 18.48C118.297 18.992 118.177 19.464 117.937 19.896C117.697 20.312 117.369 20.64 116.953 20.88C116.537 21.12 116.065 21.24 115.537 21.24ZM123.382 5.184H128.374V21H123.382V5.184ZM116.518 3H135.238V7.416H116.518V3ZM152.767 10.2V13.8H139.591V10.2H152.767ZM142.975 12L141.799 19.224L139.783 16.968H153.559V21H136.831L138.199 12L136.831 3H153.439V7.032H139.783L141.799 4.776L142.975 12ZM176.148 13.464C175.972 15.048 175.428 16.44 174.516 17.64C173.604 18.824 172.404 19.744 170.916 20.4C169.444 21.056 167.748 21.384 165.828 21.384C163.732 21.384 161.9 20.992 160.332 20.208C158.764 19.424 157.54 18.328 156.66 16.92C155.796 15.512 155.364 13.872 155.364 12C155.364 10.128 155.796 8.488 156.66 7.08C157.54 5.672 158.764 4.576 160.332 3.792C161.9 3.008 163.732 2.616 165.828 2.616C167.748 2.616 169.444 2.944 170.916 3.6C172.404 4.256 173.604 5.184 174.516 6.384C175.428 7.568 175.972 8.952 176.148 10.536H171.156C170.996 9.768 170.684 9.12 170.22 8.592C169.756 8.048 169.148 7.632 168.396 7.344C167.66 7.056 166.804 6.912 165.828 6.912C164.708 6.912 163.74 7.12 162.924 7.536C162.108 7.936 161.484 8.52 161.052 9.288C160.62 10.04 160.404 10.944 160.404 12C160.404 13.056 160.62 13.968 161.052 14.736C161.484 15.488 162.108 16.072 162.924 16.488C163.74 16.888 164.708 17.088 165.828 17.088C166.804 17.088 167.66 16.952 168.396 16.68C169.148 16.408 169.756 16 170.22 15.456C170.684 14.912 170.996 14.248 171.156 13.464H176.148ZM178.563 3H183.531V21H178.563V3ZM192.723 3H197.715V21H192.723V3ZM181.347 9.648H194.787V14.064H181.347V9.648Z" fill="white"/>
  <path fill-rule="evenodd" clip-rule="evenodd" d="M223.072 3H223H216.872H205V9.19989H212.808L205.008 17.0001V21H209.008L216.872 12.9849V20.9997H223.072V3Z" fill="#00C677"/>
</svg>
