<svg width="224" height="24" viewBox="0 0 224 24" fill="none" xmlns="http://www.w3.org/2000/svg">
  <path d="M20.112 13.2C20.064 14.288 19.84 15.328 19.44 16.32C19.056 17.296 18.488 18.168 17.736 18.936C17 19.704 16.072 20.304 14.952 20.736C13.848 21.168 12.56 21.384 11.088 21.384C9.68 21.384 8.36 21.184 7.128 20.784C5.896 20.368 4.808 19.76 3.864 18.96C2.936 18.16 2.208 17.176 1.68 16.008C1.168 14.84 0.912 13.504 0.912 12C0.912 10.496 1.176 9.16 1.704 7.992C2.232 6.824 2.968 5.84 3.912 5.04C4.872 4.24 5.976 3.64 7.224 3.24C8.488 2.824 9.864 2.616 11.352 2.616C13.336 2.616 15.048 2.92 16.488 3.528C17.928 4.136 19.088 4.968 19.968 6.024C20.848 7.08 21.416 8.304 21.672 9.696H16.656C16.496 9.088 16.168 8.568 15.672 8.136C15.192 7.688 14.584 7.352 13.848 7.128C13.128 6.888 12.304 6.768 11.376 6.768C10.256 6.768 9.288 6.968 8.472 7.368C7.656 7.752 7.024 8.336 6.576 9.12C6.128 9.888 5.904 10.848 5.904 12C5.904 13.168 6.144 14.152 6.624 14.952C7.104 15.752 7.784 16.352 8.664 16.752C9.56 17.152 10.608 17.352 11.808 17.352C12.976 17.352 14.008 17.192 14.904 16.872C15.8 16.536 16.512 16.048 17.04 15.408C17.584 14.768 17.896 14 17.976 13.104L20.112 13.2ZM12.288 15.192V11.688H21.84V21H18.312L17.616 13.872L18.552 15.192H12.288ZM27.9653 17.544V13.536H40.3733V17.544H27.9653ZM37.5413 3L45.7253 21H40.4213L33.5573 5.112H34.9973L28.1093 21H22.8053L30.9893 3H37.5413ZM50.862 10.872H57.414C58.214 10.872 58.838 10.688 59.286 10.32C59.734 9.952 59.958 9.44 59.958 8.784C59.958 8.112 59.734 7.6 59.286 7.248C58.838 6.88 58.214 6.696 57.414 6.696H50.166L52.398 4.32V21H47.43V3H58.11C59.486 3 60.686 3.248 61.71 3.744C62.734 4.224 63.534 4.896 64.11 5.76C64.686 6.608 64.974 7.616 64.974 8.784C64.974 9.92 64.686 10.92 64.11 11.784C63.534 12.648 62.734 13.32 61.71 13.8C60.686 14.28 59.486 14.52 58.11 14.52H50.862V10.872ZM53.55 12.576H59.142L65.598 21H59.838L53.55 12.576ZM84.5006 17.52L82.9646 17.832V3H87.7886V21H81.5246L71.1326 6.192L72.6446 5.88V21H67.8206V3H74.2526L84.5006 17.52ZM101.029 21.384C98.9009 21.384 97.0289 20.992 95.4129 20.208C93.8129 19.424 92.5649 18.328 91.6689 16.92C90.7889 15.512 90.3489 13.872 90.3489 12C90.3489 10.128 90.7889 8.488 91.6689 7.08C92.5649 5.672 93.8129 4.576 95.4129 3.792C97.0289 3.008 98.9009 2.616 101.029 2.616C103.173 2.616 105.045 3.008 106.645 3.792C108.245 4.576 109.493 5.672 110.389 7.08C111.285 8.488 111.733 10.128 111.733 12C111.733 13.872 111.285 15.512 110.389 16.92C109.493 18.328 108.245 19.424 106.645 20.208C105.045 20.992 103.173 21.384 101.029 21.384ZM101.029 16.944C102.197 16.944 103.205 16.744 104.053 16.344C104.901 15.944 105.549 15.376 105.997 14.64C106.461 13.904 106.693 13.024 106.693 12C106.693 10.976 106.461 10.096 105.997 9.36C105.549 8.624 104.901 8.056 104.053 7.656C103.205 7.256 102.197 7.056 101.029 7.056C99.8769 7.056 98.8769 7.256 98.0289 7.656C97.1809 8.056 96.5249 8.624 96.0609 9.36C95.5969 10.096 95.3649 10.976 95.3649 12C95.3649 13.024 95.5969 13.904 96.0609 14.64C96.5249 15.376 97.1809 15.944 98.0289 16.344C98.8769 16.744 99.8769 16.944 101.029 16.944ZM115.538 21.24C115.026 21.24 114.554 21.12 114.122 20.88C113.706 20.64 113.378 20.312 113.138 19.896C112.898 19.464 112.778 18.992 112.778 18.48C112.778 17.968 112.898 17.504 113.138 17.088C113.378 16.672 113.706 16.344 114.122 16.104C114.554 15.848 115.026 15.72 115.538 15.72C116.066 15.72 116.538 15.848 116.954 16.104C117.37 16.344 117.698 16.672 117.938 17.088C118.178 17.504 118.298 17.968 118.298 18.48C118.298 18.992 118.178 19.464 117.938 19.896C117.698 20.312 117.37 20.64 116.954 20.88C116.538 21.12 116.066 21.24 115.538 21.24ZM123.383 5.184H128.375V21H123.383V5.184ZM116.519 3H135.239V7.416H116.519V3ZM152.767 10.2V13.8H139.591V10.2H152.767ZM142.975 12L141.799 19.224L139.783 16.968H153.559V21H136.831L138.199 12L136.831 3H153.439V7.032H139.783L141.799 4.776L142.975 12ZM176.149 13.464C175.973 15.048 175.429 16.44 174.517 17.64C173.605 18.824 172.405 19.744 170.917 20.4C169.445 21.056 167.749 21.384 165.829 21.384C163.733 21.384 161.901 20.992 160.333 20.208C158.765 19.424 157.541 18.328 156.661 16.92C155.797 15.512 155.365 13.872 155.365 12C155.365 10.128 155.797 8.488 156.661 7.08C157.541 5.672 158.765 4.576 160.333 3.792C161.901 3.008 163.733 2.616 165.829 2.616C167.749 2.616 169.445 2.944 170.917 3.6C172.405 4.256 173.605 5.184 174.517 6.384C175.429 7.568 175.973 8.952 176.149 10.536H171.157C170.997 9.768 170.685 9.12 170.221 8.592C169.757 8.048 169.149 7.632 168.397 7.344C167.661 7.056 166.805 6.912 165.829 6.912C164.709 6.912 163.741 7.12 162.925 7.536C162.109 7.936 161.485 8.52 161.053 9.288C160.621 10.04 160.405 10.944 160.405 12C160.405 13.056 160.621 13.968 161.053 14.736C161.485 15.488 162.109 16.072 162.925 16.488C163.741 16.888 164.709 17.088 165.829 17.088C166.805 17.088 167.661 16.952 168.397 16.68C169.149 16.408 169.757 16 170.221 15.456C170.685 14.912 170.997 14.248 171.157 13.464H176.149ZM178.563 3H183.531V21H178.563V3ZM192.723 3H197.715V21H192.723V3ZM181.347 9.648H194.787V14.064H181.347V9.648Z" fill="#111827"/>
  <path fill-rule="evenodd" clip-rule="evenodd" d="M223.072 3H223H216.872H205V9.19989H212.808L205.008 17.0001V21H209.008L216.872 12.9849V20.9997H223.072V3Z" fill="#00C677"/>
</svg>
