<svg width="16" height="16" viewBox="0 0 16 16" fill="none" xmlns="http://www.w3.org/2000/svg">
    <path d="M15.7624 14.6535C16.0792 14.9703 16.0792 15.4455 15.7624 15.7624C15.604 15.9208 15.3663 16 15.2079 16C15.0495 16 14.8119 15.9208 14.6535 15.7624L8 9.10891L1.34653 15.7624C1.18812 15.9208 0.950496 16 0.79208 16C0.633664 16 0.39604 15.9208 0.237624 15.7624C-0.0792079 15.4455 -0.0792079 14.9703 0.237624 14.6535L6.89109 8L0.237624 1.34653C-0.0792079 1.0297 -0.0792079 0.554455 0.237624 0.237624C0.554455 -0.0792079 1.0297 -0.0792079 1.34653 0.237624L8 6.89109L14.6535 0.237624C14.9703 -0.0792079 15.4455 -0.0792079 15.7624 0.237624C16.0792 0.554455 16.0792 1.0297 15.7624 1.34653L9.10891 8L15.7624 14.6535Z" fill="#111827"/>
</svg>
