<svg xmlns="http://www.w3.org/2000/svg" width="158" height="30" viewBox="0 0 158 30" fill="none">
  <rect x="-0.00012207" width="30" height="30" rx="3" fill="#00C677"/>
  <path d="M24.9477 12.2428C24.8168 11.8378 24.4576 11.5501 24.0326 11.5118L18.2601 10.9877L15.9775 5.645C15.8092 5.25345 15.4258 5 15 5C14.5741 5 14.1908 5.25345 14.0225 5.64592L11.7398 10.9877L5.96639 11.5118C5.54219 11.5511 5.1839 11.8378 5.05221 12.2428C4.92053 12.6477 5.04214 13.0919 5.36304 13.3719L9.7264 17.1986L8.43975 22.8663C8.3456 23.2831 8.50734 23.7138 8.85312 23.9638C9.03897 24.098 9.25641 24.1664 9.47569 24.1664C9.66475 24.1664 9.85228 24.1154 10.0206 24.0147L15 21.0387L19.9775 24.0147C20.3417 24.2338 20.8009 24.2139 21.1459 23.9638C21.4918 23.7131 21.6534 23.2821 21.5593 22.8663L20.2726 17.1986L24.636 13.3727C24.9569 13.0919 25.0794 12.6485 24.9477 12.2428Z" fill="#F6F9FF"/>
  <rect x="31.9999" width="30" height="30" rx="3" fill="#00C677"/>
  <path d="M56.9477 12.2428C56.8168 11.8378 56.4576 11.5501 56.0326 11.5118L50.2601 10.9877L47.9775 5.645C47.8092 5.25345 47.4258 5 47 5C46.5741 5 46.1908 5.25345 46.0225 5.64592L43.7398 10.9877L37.9664 11.5118C37.5422 11.5511 37.1839 11.8378 37.0522 12.2428C36.9205 12.6477 37.0421 13.0919 37.363 13.3719L41.7264 17.1986L40.4397 22.8663C40.3456 23.2831 40.5073 23.7138 40.8531 23.9638C41.039 24.098 41.2564 24.1664 41.4757 24.1664C41.6647 24.1664 41.8523 24.1154 42.0206 24.0147L47 21.0387L51.9775 24.0147C52.3417 24.2339 52.8009 24.2139 53.1459 23.9638C53.4918 23.7131 53.6534 23.2821 53.5593 22.8663L52.2726 17.1986L56.636 13.3727C56.9569 13.0919 57.0794 12.6485 56.9477 12.2428Z" fill="#F6F9FF"/>
  <rect x="63.9999" width="30" height="30" rx="3" fill="#00C677"/>
  <path d="M88.9477 12.2428C88.8168 11.8378 88.4576 11.5501 88.0326 11.5118L82.2601 10.9877L79.9775 5.645C79.8092 5.25345 79.4258 5 79 5C78.5741 5 78.1908 5.25345 78.0225 5.64592L75.7398 10.9877L69.9664 11.5118C69.5422 11.5511 69.1839 11.8378 69.0522 12.2428C68.9205 12.6477 69.0421 13.0919 69.363 13.3719L73.7264 17.1986L72.4397 22.8663C72.3456 23.2831 72.5073 23.7138 72.8531 23.9638C73.039 24.098 73.2564 24.1664 73.4757 24.1664C73.6647 24.1664 73.8523 24.1154 74.0206 24.0147L79 21.0387L83.9775 24.0147C84.3417 24.2339 84.8009 24.2139 85.1459 23.9638C85.4918 23.7131 85.6534 23.2821 85.5593 22.8663L84.2726 17.1986L88.636 13.3727C88.9569 13.0919 89.0794 12.6485 88.9477 12.2428Z" fill="#F6F9FF"/>
  <rect x="95.9999" width="30" height="30" rx="3" fill="#00C677"/>
  <path d="M120.948 12.2428C120.817 11.8378 120.458 11.5501 120.033 11.5118L114.26 10.9877L111.977 5.645C111.809 5.25345 111.426 5 111 5C110.574 5 110.191 5.25345 110.022 5.64592L107.74 10.9877L101.966 11.5118C101.542 11.5511 101.184 11.8378 101.052 12.2428C100.921 12.6477 101.042 13.0919 101.363 13.3719L105.726 17.1986L104.44 22.8663C104.346 23.2831 104.507 23.7138 104.853 23.9638C105.039 24.098 105.256 24.1664 105.476 24.1664C105.665 24.1664 105.852 24.1154 106.021 24.0147L111 21.0387L115.977 24.0147C116.342 24.2339 116.801 24.2139 117.146 23.9638C117.492 23.7131 117.653 23.2821 117.559 22.8663L116.273 17.1986L120.636 13.3727C120.957 13.0919 121.079 12.6485 120.948 12.2428Z" fill="#F6F9FF"/>
  <rect x="128" width="30" height="30" rx="3" fill="#00C677"/>
  <path d="M152.948 12.2428C152.817 11.8378 152.458 11.5501 152.033 11.5118L146.26 10.9877L143.977 5.645C143.809 5.25345 143.426 5 143 5C142.574 5 142.191 5.25345 142.022 5.64592L139.74 10.9877L133.966 11.5118C133.542 11.5511 133.184 11.8378 133.052 12.2428C132.921 12.6477 133.042 13.0919 133.363 13.3719L137.726 17.1986L136.44 22.8663C136.346 23.2831 136.507 23.7138 136.853 23.9638C137.039 24.098 137.256 24.1664 137.476 24.1664C137.665 24.1664 137.852 24.1154 138.021 24.0147L143 21.0387L147.977 24.0147C148.342 24.2339 148.801 24.2139 149.146 23.9638C149.492 23.7131 149.653 23.2821 149.559 22.8663L148.273 17.1986L152.636 13.3727C152.957 13.0919 153.079 12.6485 152.948 12.2428Z" fill="#F6F9FF"/>
</svg>