<svg width="60" height="60" viewBox="0 0 60 60" fill="none" xmlns="http://www.w3.org/2000/svg">
<path d="M38.4419 28.1539H25.2814L28.2831 25.1521C28.6295 24.8059 28.8241 24.3364 28.8242 23.8467C28.8243 23.357 28.6299 22.8874 28.2838 22.5411C27.9376 22.1947 27.468 22.0001 26.9784 22C26.4887 21.9999 26.0191 22.1943 25.6727 22.5405L21.2593 26.9539C20.4529 27.7625 20 28.858 20 30C20 31.142 20.4529 32.2375 21.2593 33.0461L25.6727 37.4595C26.0191 37.8057 26.4887 38.0001 26.9784 38C27.468 37.9999 27.9376 37.8053 28.2838 37.4589C28.6299 37.1126 28.8243 36.643 28.8242 36.1533C28.8241 35.6636 28.6295 35.1941 28.2831 34.8479L25.2814 31.8461L38.4419 31.8461C38.9315 31.8461 39.4011 31.6516 39.7473 31.3054C40.0935 30.9592 40.288 30.4896 40.288 30C40.288 29.5104 40.0935 29.0408 39.7473 28.6946C39.4011 28.3484 38.9315 28.1539 38.4419 28.1539Z" fill="#010101" fill-opacity="0.3"/>
<path d="M2.05448 40.9109C4.57878 47.3763 9.26675 52.7663 15.3196 56.1627C21.3725 59.5591 28.4158 60.7516 35.2494 59.5372C42.0829 58.3227 48.284 54.7764 52.796 49.5024C57.308 44.2284 59.8517 37.5531 59.9937 30.6139C60.1358 23.6747 57.8673 16.9009 53.5749 11.4468C49.2825 5.99257 43.2318 2.19545 36.4536 0.702374C29.6754 -0.790703 22.5893 0.112644 16.4025 3.2585C10.2157 6.40436 5.3111 11.5981 2.52436 17.9547L3.26538 18.2796C5.97697 12.0944 10.7493 7.04074 16.7692 3.97973C22.7891 0.91872 29.6842 0.0397339 36.2796 1.49254C42.8749 2.94535 48.7625 6.64006 52.9391 11.9471C57.1157 17.2542 59.323 23.8453 59.1848 30.5974C59.0466 37.3494 56.5715 43.8447 52.1812 48.9764C47.7909 54.1081 41.7571 57.5588 35.1078 58.7405C28.4585 59.9222 21.6052 58.7619 15.7156 55.4571C9.82594 52.1523 5.2644 46.9076 2.80819 40.6166L2.05448 40.9109Z" fill="#010101" fill-opacity="0.3"/>
</svg>
