<svg width="60" height="60" viewBox="0 0 60 60" fill="none" xmlns="http://www.w3.org/2000/svg">
<path d="M21.8462 31.8461L35.0067 31.8461L32.0049 34.8479C31.6586 35.1941 31.464 35.6636 31.4639 36.1533C31.4638 36.643 31.6582 37.1126 32.0043 37.4589C32.3505 37.8053 32.82 37.9999 33.3097 38C33.7994 38.0001 34.269 37.8057 34.6154 37.4595L39.0288 33.0461C39.8352 32.2375 40.2881 31.142 40.2881 30C40.2881 28.858 39.8352 27.7625 39.0288 26.9539L34.6154 22.5405C34.269 22.1943 33.7994 21.9999 33.3097 22C32.82 22.0001 32.3505 22.1947 32.0043 22.5411C31.6582 22.8874 31.4638 23.357 31.4639 23.8467C31.464 24.3364 31.6586 24.8059 32.0049 25.1521L35.0067 28.1539L21.8462 28.1539C21.3566 28.1539 20.887 28.3484 20.5408 28.6946C20.1946 29.0408 20.0001 29.5104 20.0001 30C20.0001 30.4896 20.1946 30.9592 20.5408 31.3054C20.887 31.6516 21.3566 31.8461 21.8462 31.8461Z" fill="#00C677"/>
<path d="M57.9455 19.0891C55.4212 12.6237 50.7332 7.23368 44.6804 3.8373C38.6275 0.440921 31.5842 -0.751634 24.7506 0.462833C17.9171 1.6773 11.716 5.22365 7.20401 10.4976C2.69203 15.7716 0.148316 22.4469 0.00628231 29.3861C-0.135752 36.3253 2.13268 43.0991 6.42508 48.5532C10.7175 54.0074 16.7682 57.8046 23.5464 59.2976C30.3246 60.7907 37.4107 59.8874 43.5975 56.7415C49.7843 53.5956 54.6889 48.4019 57.4756 42.0453L56.7346 41.7204C54.023 47.9056 49.2507 52.9593 43.2308 56.0203C37.2109 59.0813 30.3158 59.9603 23.7204 58.5075C17.1251 57.0546 11.2375 53.3599 7.0609 48.0529C2.88428 42.7458 0.677022 36.1547 0.815225 29.4026C0.953429 22.6506 3.42854 16.1553 7.81883 11.0236C12.2091 5.89188 18.2429 2.44118 24.8922 1.25946C31.5415 0.0777505 38.3948 1.23814 44.2844 4.54292C50.1741 7.8477 54.7356 13.0924 57.1918 19.3834L57.9455 19.0891Z" fill="#00C677"/>
</svg>
