<svg width="1448" height="890" viewBox="0 0 1448 890" fill="none" xmlns="http://www.w3.org/2000/svg">
<mask id="mask0_28_307" style="mask-type:luminance" maskUnits="userSpaceOnUse" x="0" y="0" width="1448" height="890">
<path d="M0 0H1448V890H0V0Z" fill="#F2F7F5"/>
</mask>
<g mask="url(#mask0_28_307)">
<g opacity="0.2">
<path d="M461 635C453 635 448 634 445 632C431 621 395 625 361 629C321 633 284 638 271 622C266 615 266 606 270 592C284 553 333 508 371 477C418 439 466 408 487 397C549 364 604 336 645 319C688 301 715 296 732 303C742 308 749 316 752 330C757 348 767 361 783 371C797 380 816 386 835 392C859 399 886 407 911 423C916 425 918 429 917 433C917 444 901 459 870 478C843 495 805 515 760 536C697 565 623 594 564 612C508 630 478 635 461 635ZM412 623C427 623 439 625 447 630C457 638 499 631 563 610C622 591 696 563 759 534C856 490 914 452 915 433C915 430 914 427 910 425C885 409 858 401 835 394C795 382 761 371 750 330C747 318 741 310 731 305C696 290 616 331 488 399C467 410 419 440 372 479C334 509 286 554 272 593C268 606 268 615 273 621C285 636 323 631 361 627C378 625 396 623 412 623Z" fill="url(#paint0_linear_28_307)"/>
<path d="M466 628C460 628 455 627 452 625C439 615 406 619 375 623C338 627 304 631 292 616C288 610 287 601 291 589C298 568 317 542 345 514C387.153 470.528 435.716 433.768 489 405C551 372 597 348 633 334C672 318 697 314 713 321C722 325 728 333 732 345C736 362 745 374 760 383C773 392 790 397 808 403C829 409 854 417 877 431C881 434 883 437 882 442C880 469 779 518 735 538C650.081 580.667 559.498 610.974 466 628ZM422 617C435 617 446 619 453 624C474 638 618 590 734 536C824 495 879 460 880 441C880 438 879 435 876 433C853 419 829 411 807 405C771 393 740 384 730 346C727 334 721 326 712 322C679 308 603 347 490 407C436.767 435.436 388.204 471.859 346 515C318 543 300 569 293 590C289 601 289 609 294 615C305 629 340 625 375 621C391 619 407 617 422 617Z" fill="url(#paint1_linear_28_307)"/>
<path d="M472 621L459 619C447 610 417 613 389 616C356 620 324 624 314 610C309 605 309 597 313 586C319 567 335 541 359 514C396.082 472.144 440.904 437.848 491 413C537 388 585 363 620 349C655 335 679 331 693 338C702 342 708 349 711 361C720 394 748 403 780 414C799 420 821 427 842 440C850 446 847 454 843 459C822 490 725 537 648 568C579 596 503 621 472 621ZM432 611C444 611 454 613 460 617C474 627 551 606 647 566C693 548 736 528 770 509C808 489 832 471 841 458C847 451 847 445 841 442C821 428 799 422 779 415C747 405 718 396 709 361C706 350 701 343 692 339C664 327 602 355 492 414C473.191 426.3 454.189 438.302 435 450C410 467 383 491 361 516C337 542 320 567 314 587C311 597 311 604 315 609C325 622 357 618 389 614L432 611Z" fill="url(#paint2_linear_28_307)"/>
<path d="M477 614L466 612C454 604 428 607 403 610C374 613 345 617 335 604C331 599 330 592 334 583C359.794 522.563 404.779 472.306 462 440L494 421C547 391 581 374 608 364C639 352 660 349 673 355C682 358 687 366 690 377C698 407 723 415 752 425C769 430 789 437 807 449C813 453 813 460 808 468C799 480 776 496 742 515C673.324 552.427 600.933 582.59 526 605C509 609 490 614 477 614ZM441 605C452 605 461 607 467 610C473 615 494 612 526 603C556 595 594 581 633 565C700 537 786 495 806 467C811 460 811 454 806 450C788 438 769 432 752 426C722 417 697 408 689 377C686 367 681 360 673 357C646 345 587 372 495 422L463 442L441 455C396 485 346 546 335 583C332 592 333 599 336 603C345 615 375 611 403 608L441 605Z" fill="url(#paint3_linear_28_307)"/>
<path d="M482 607L472 605C462 599 439 601 417 604C391 606 365 609 356 599C352 594 352 588 355 579C359 563 371 539 389 516C407 491 428 470 447 458L452 455C470 445 486 436 496 428C587 378 631 362 654 372C662 375 667 382 670 392C677 419 699 427 724 436C739 441 756 447 773 457C778 462 778 468 772 476C754 502 681 539 619 565C585 579 552 591 525 599C511 603 493 607 482 607ZM451 599C460 599 468 600 473 604C484 611 545 594 618 563C653 549 687 532 713 518C743 501 763 486 771 475C776 468 776 463 772 458C756 448 739 442 724 437C698 428 675 420 668 393C666 383 661 377 653 373C628 362 572 388 497 430L453 456L448 459C429 471 408 492 390 517C373 540 360 564 356 580C354 588 354 594 357 598C366 608 392 605 417 602L451 599Z" fill="url(#paint4_linear_28_307)"/>
<path d="M487 600L479 599C470 593 451 595 431 597C409 600 385 602 377 593C374 589 374 584 376 576C381 547 417 485 453 463C470 454 488 444 498 436C573 394 613 380 634 389C642 392 646 398 649 408C655 431 674 438 697 446C709 451 724 456 738 466C743 470 743 477 737 485C720 508 657 541 604 563C560 582 509 600 487 600ZM461 594C469 594 476 595 480 597C490 603 542 588 604 562C656 539 719 507 736 484C741 477 741 471 737 467C723 458 709 452 696 448C674 440 654 433 648 408C645 399 641 393 633 390C613 382 573 396 499 437C489 446 471 455 454 464C418 486 383 547 377 577C375 583 376 588 378 592C386 601 409 598 431 596L461 594Z" fill="url(#paint5_linear_28_307)"/>
<path d="M492 593L486 592C478 588 462 589 446 591C426 593 405 595 398 587C396 584 395 579 397 573C400 547 429 485 460 468C472 462 491 453 501 444C559 410 595 398 614 406C621 409 626 415 628 423C634 444 650 450 669 458C680 462 692 466 703 474C708 479 707 486 702 494C694 503 680 515 658 528C606.004 557.377 550.119 579.26 492 593ZM471 588C477 588 483 589 487 591C496 595 539 583 589 560C656 532 690 506 700 493C706 485 706 480 702 475C691 468 679 463 668 459C649 451 633 445 627 424C625 415 620 410 614 407C595 399 560 411 501 445C491 454 473 463 460 469C430 486 402 548 398 573C397 579 397 583 399 586C406 594 426 592 445 590L471 588Z" fill="url(#paint6_linear_28_307)"/>
<path d="M438 586C430 586 423 585 420 581C417 578 417 575 418 570C419 548 440 486 466 472C483 466 496 458 503 451C547 425 577 416 594 422C601 425 605 431 608 439C612 456 626 462 641 468C650 472 659 476 668 483C673 488 672 495 666 502C654 518 620 540 576 560C559 568 541 575 523 580C512 584 498 587 493 585C486 582 473 583 460 585L438 586ZM467 473C451 481 439 505 434 519C426 537 420 558 419 570C418 575 419 578 421 580C426 587 443 585 460 583C473 582 486 581 493 584C509 591 638 538 665 502C671 494 671 488 667 484C659 477 649 473 640 470C625 463 611 457 607 439C604 431 600 426 593 423C577 417 547 427 504 452C497 459 484 467 467 473Z" fill="url(#paint7_linear_28_307)"/>
<path d="M456 580C449 580 444 579 441 575C439 573 438 570 439 567C438 557 442 536 447 519C451 506 460 483 472 477H473C481 474 497 469 505 459C536 440 559 433 573 439C580 441 585 447 587 455C591 469 601 474 613 480C620 483 627 486 634 491V492C638 497 637 504 631 512C621 525 595 543 562 559C533 572 506 581 500 579C494 576 484 577 474 578L456 580ZM473 478C452 488 439 550 440 567C440 570 440 573 442 575C446 580 460 579 474 577C484 576 494 575 500 577C506 580 533 571 561 558C594 542 620 524 630 511C635 504 636 497 633 492L613 480C600 475 590 469 586 455C584 447 579 442 573 440C559 434 536 441 506 460C497 470 482 475 473 478Z" fill="url(#paint8_linear_28_307)"/>
<path d="M475 573C469 573 464 572 462 569C461.219 568.227 460.631 567.281 460.284 566.239C459.936 565.196 459.839 564.087 460 563C458 556 459 537 462 520C467 490 475 483 479 482C491 480 502 474 508 467C531 451 545 451 552 454C559 457 564 462 566 470C569 481 577 485 585 491C590 493 595 496 599 500C602 506 601 513 595 521C576 548 517 574 506 572H489L475 573ZM479 483C472 485 466 499 463 520C460 537 459 556 461 563C460.742 564.087 460.792 565.225 461.145 566.285C461.499 567.345 462.141 568.285 463 569C467 573 478 572 489 571H507C512 572 530 565 548 556C570 545 587 532 595 521C600 513 601 506 598 501L585 491C576 486 569 482 566 471C563 463 559 457 552 455C544 452 531 452 508 467C503 475 492 481 479 483Z" fill="url(#paint9_linear_28_307)"/>
<path d="M494 566C489 566 485 566 483 564C482.559 563.443 482.241 562.798 482.069 562.108C481.896 561.418 481.873 560.7 482 560C476 551 474 506 481 491C482 488 484 487 485 486C493 487 504 484 510 474C518 468 525 466 531 468C537 470 543 477 546 486C548 493 552 498 557 502L564 509C567 516 566 524 560 533C548.36 548.63 531.809 559.898 513 565L505 566H494ZM485 487L481 492C478 498 477 512 477 528C478 543 480 556 482 560C482.075 560.622 482.295 561.217 482.643 561.738C482.99 562.259 483.455 562.691 484 563C487 566 497 565 505 565L513 564C521 564 548 550 560 532C565 524 566 516 563 509L557 502C552 498 547 494 545 486C542 477 537 471 531 469C525 467 518 469 511 475C504 484 493 487 485 487Z" fill="url(#paint10_linear_28_307)"/>
<path d="M513 560C509 560 506 559 503 557C498 554 494 539 492 526C489 513 488 497 490 492L492 491C498 493 507 491 512 482C513 480 514 480 515 480C519 480 522 490 524 497L525 502C537 537 531 551 523 556C520 559 517 560 513 560ZM491 492C489 496 490 510 493 525C496 542 500 554 503 557C507 559 516 561 523 556C530 550 536 537 524 502L523 498C521 491 518 481 515 480L513 482C511.227 486.099 507.993 489.393 503.928 491.241C499.862 493.089 495.254 493.359 491 492Z" fill="url(#paint11_linear_28_307)"/>
<path d="M823 340C809 340 801 337 797 331C791 324 794 311 804 294C814 276 834 252 862 223C900 184 937 151 972 125C1002 102 1033 83 1062 70C1112 46 1153 39 1189 36C1227 33 1261 37 1288 50C1312 60 1331 77 1344 99C1372 145 1369 203 1350 233C1341 247 1329 254 1316 252C1262 246 1214 245 1169 247C1108 251 1053 263 1008 283C975 297 927 316 885 329C858 336 838 340 823 340ZM1189 38C1153 42 1113 48 1062 72C1034 85 1004 104 973 126C910.072 174.994 853.62 231.782 805 295C796 311 794 323 798 330C806 342 836 340 884 327C926 314 974 295 1007 281C1053 261 1108 249 1169 245C1214 243 1262 244 1317 250C1328 252 1340 245 1348 232C1367 202 1370 145 1343 100C1330 79 1310 62 1287 52C1260 39 1227 35 1189 38Z" fill="url(#paint12_linear_28_307)"/>
<path d="M841 323C829 323 821 321 818 315C808 300 827 268 878 215C945 148 1010 101 1070 75C1118 53 1156 49 1189 47C1223 44 1253 48 1277 59C1298 68 1315 84 1327 103C1337.95 121.331 1344.06 142.143 1344.76 163.483C1345.46 184.823 1340.72 205.991 1331 225C1322 239 1309 247 1296 246C1198 238 1094 236 1007 273C977 286 934 303 896 313C873 320 855 323 841 323ZM1209 48L1189 49C1156 51 1119 55 1070 77C973.075 124.273 889.277 194.677 826 282C817 297 815 308 819 314C827 325 852 324 896 312C933 301 976 284 1006 271C1094 234 1197 236 1296 244C1309 245 1320 238 1329 224C1338 210 1343 189 1343 168C1343 152 1340 128 1325 104C1314 85 1297 70 1276 61C1257 52 1235 48 1209 48Z" fill="url(#paint13_linear_28_307)"/>
<path d="M860 307C849 307 842 304 838 299C829 286 848 256 895 208C958 146 1020 103 1077 80C1124 61 1160 58 1189 58C1219 55 1245 59 1266 69C1285 77 1299 90 1310 107C1320 124 1325 144 1325 165C1325 185 1320 203 1312 217C1302 232 1290 240 1276 239H1268C1227 237 1181 234 1136 237C1084 240 1042 248 1006 263C967 279 934 291 908 298C888 304 872 307 860 307ZM1205 59H1189C1160 60 1125 63 1078 81C1021 105 960 148 896 209C850 256 832 286 840 298C847 308 869 307 907 296C933 289 966 278 1005 261C1041 247 1084 238 1136 235C1181 233 1228 235 1268 237H1276C1289 238 1301 230 1310 216C1318 202 1323 184 1323 165C1323 144 1318 125 1308 108C1297.77 91.5752 1282.77 78.6662 1265 71C1248 63 1228 59 1205 59Z" fill="url(#paint14_linear_28_307)"/>
<path d="M879 290C869 290 862 288 859 283C851 271 868 244 911 201C972 144 1030 105 1085 85C1131 68 1165 67 1189 68C1251 65 1280 90 1293 111C1302 126 1306 144 1306 162C1305 179 1301 196 1293 208C1283 224 1270 233 1256 232H1224C1148 230 1070 228 1005 254C944 278 902 290 879 290ZM1175 70C1152 70 1123 73 1086 86C1031 106 973 145 912 202C871 244 853 271 861 282C866 291 886 290 919 281C941 276 969 266 1004 252C1069 226 1148 228 1224 230L1256 231C1269 231 1282 223 1291 208C1299 195 1303 179 1304 162C1304 144 1300 127 1291 112C1278 91 1250 67 1189 70H1175Z" fill="url(#paint15_linear_28_307)"/>
<path d="M898 273C889 273 883 272 880 267C873 256 888 232 927 193C985 142 1041 107 1093 90C1127 79 1158 75 1189 79C1241 77 1265 98 1276 116C1283 128 1287 143 1286 159C1286 173 1282 187 1275 200C1265 216 1251 226 1236 226H1183C1117 225 1055 224 1004 244C965 258 922 273 898 273ZM1165 79C1142 79 1119 83 1094 91C1042 108 986 143 928 195C891 232 875 256 882 266C893 284 973 254 1003 242C1054 223 1117 223 1183 224H1235C1250 225 1264 215 1273 199C1280 187 1284 173 1285 159C1285 143 1282 129 1275 117C1264 99 1241 79 1189 81L1165 79Z" fill="url(#paint16_linear_28_307)"/>
<path d="M916 257C909 257 903 255 901 251C895 242 909 220 943 186C998 139 1051 108 1101 95C1142 83 1171 86 1189 90C1232 89 1251 106 1260 121C1271 141 1270 168 1257 191C1247 209 1231 219 1215 219L1143 220C1089 220 1041 220 1003 234C969 246 935 257 916 257ZM1158 88C1114 88 1041 104 944 187C911 220 897 242 902 251C911 265 973 243 1002 233C1041 219 1088 219 1143 219L1215 217C1231 217 1246 207 1256 190C1269 168 1270 141 1258 121C1250 107 1231 90 1189 91L1158 88Z" fill="url(#paint17_linear_28_307)"/>
<path d="M935 240C929 240 924 239 922 236C916 227 929 209 959 179C1011 137 1062 110 1109 100C1125 96 1142 94 1159 95C1174 96 1184 99 1189 100C1209 101 1225 106 1236 116C1245 124 1249 136 1250 149C1250 164 1244 179 1234 192C1229.35 197.972 1223.45 202.855 1216.71 206.31C1209.97 209.764 1202.56 211.706 1195 212C1161 215 1132 215 1105 215C1063 215 1029 215 1002 224L1000 225C980 231 952 240 935 240ZM1151 96C1137 96 1123 98 1110 101C1062 112 1012 138 960 180C931 209 918 227 923 235C930 246 974 232 1000 224L1001 223C1029 214 1063 214 1106 214L1195 211C1209 211 1222 204 1233 191C1242 179 1248 163 1248 149C1248 136 1243 125 1235 117C1224 107 1209 102 1189 102C1184 100 1171 96 1151 96Z" fill="url(#paint18_linear_28_307)"/>
<path d="M954 224C948 224 944 223 942 220C938 213 949 197 975 171C1009 146 1061 114 1117 105C1134 102 1149 102 1163 103C1174 105 1183 108 1189 111C1228 114 1232 138 1232 147C1232 160 1226 175 1215 186C1204.74 197.572 1190.41 204.737 1175 206C1131 210 1097 210 1070 210C1040 210 1019 210 1001 215L996 216C982 220 965 224 954 224ZM976 172C950 197 939 213 943 219C948 228 977 220 996 215L1001 213C1019 209 1040 209 1070 209C1097 209 1131 209 1175 205C1189 204 1203 197 1214 185C1225 174 1231 160 1231 147C1231 127 1216 114 1189 112C1177 105 1151 100 1117 106C1087 111 1037 126 976 172Z" fill="url(#paint19_linear_28_307)"/>
<path d="M973 209C968 209 964 208 962 205C961 202 962 197 966 191C971 184 979 175 991 164C1049 124 1096 112 1125 110C1159 107 1182 114 1189 122C1213 126 1217 140 1216 147C1215 169 1188 196 1154 199C1098 206 1063 205 1037 204C1021 204 1009 203 1000 205L995 206L973 209ZM992 165C970 185 960 199 963 204C966 210 982 207 995 205L1000 204C1009 202 1021 202 1037 203C1063 204 1098 205 1154 198C1169 197 1184 190 1196 180C1208 170 1215 158 1215 147C1216 134 1206 126 1189 123H1188C1183 116 1161 107 1125 111C1096 113 1050 125 992 165Z" fill="url(#paint20_linear_28_307)"/>
<path d="M1052 199C1038 199 1023 198 1009 196L999 195H996C990 195 983 195 981 190C980 187 981 180 1007 157H1008C1041 136 1073 123 1105 117C1138 112 1160 116 1170 120C1180 123 1187 128 1189 133C1201 137 1203 144 1202 149C1201 158 1193 168 1180 176C1166 185 1151 191 1134 193C1098 198 1072 199 1052 199ZM999 194L1010 195C1027 198 1060 202 1134 191C1169 187 1200 165 1201 149C1202 142 1198 137 1189 134H1188V133C1186 128 1179 124 1169 120C1158 117 1098 101 1008 157C989 175 980 185 982 190C983 194 990 194 996 194H999Z" fill="url(#paint21_linear_28_307)"/>
<path d="M1036 194H1023C1004 192 999 187 998 185C997.17 184.431 996.472 183.69 995.955 182.827C995.437 181.964 995.111 181 995 180C996 174 1004 165 1024 149C1055 132 1088 122 1118 120C1152 117 1171 126 1177 129C1185 133 1189 139 1189 144C1192 147 1193 150 1192 154C1189 162 1176 168 1165 173C1123.11 185.659 1079.74 192.721 1036 194ZM998 185C1009 196 1048 196 1114 185C1148 180 1186 167 1191 153C1192 150 1191 147 1188 144C1188 139 1184 134 1177 130C1149 114 1090 114 1024 150C1005 165 996 174 996 180C995.921 180.932 996.06 181.869 996.408 182.737C996.755 183.605 997.3 184.38 998 185Z" fill="url(#paint22_linear_28_307)"/>
<path d="M1019 189C1007 189 1000 187 997 184C995 181 995 179 997 175C999 169 1008 162 1015 157C1048.42 134.616 1087.78 122.772 1128 123C1150 123 1170 129 1181 138C1188 143 1190 149 1189 155C1186 169 1162 171 1134 174C1121 175 1107 176 1094 179C1060 186 1036 189 1019 189ZM1040 142C1027 148 1001 165 997 175C996 179 996 181 998 183C1004 191 1037 190 1093 178L1134 173C1161 170 1185 168 1188 154C1190 149 1187 143 1181 138C1170 130 1150 124 1128 123C1108 123 1077 126 1040 142Z" fill="url(#paint23_linear_28_307)"/>
<path d="M1374 952L1311 950C1190 942 1113 904 1075 833C1041 772 1042 696 1042 629C1043 584 1043 542 1033 511C999 409 962 386 940 373C927 365 918 360 919 344C920 328 977 308 1100 280C1153 269 1195 279 1228 287C1244 291 1259 295 1271 295C1306 295 1315 291 1336 283C1353 276 1380 265 1436 251C1542.56 231.992 1652.06 237.809 1756 268C1797 280 1834 295 1864 314C1920 349 1955 393 1967 445C1978 497 1977 550 1962 603C1947 656 1920 705 1882 751C1820.44 820.316 1742.35 872.947 1655 904C1565.3 937.963 1469.88 954.262 1374 952ZM1148 277C1132 277 1116 279 1101 282C1045 295 1003 306 974 315C931 329 922 338 921 344C921 358 928 363 941 371C963 385 1001 408 1035 511C1045 542 1045 584 1045 629C1044 696 1043 772 1077 832C1115 902 1191 940 1311 947C1375 952 1437 949 1496 941C1552 934 1605 920 1654 902C1746 868 1824 815 1880 749C1919 704 1945 655 1960 603C1975 550 1976 497 1964 446C1953 394 1918 350 1863 316C1833 297 1797 282 1755 270C1651.39 239.893 1542.23 234.076 1436 253C1380 267 1354 278 1337 285C1316 293 1306 297 1271 297C1258 297 1244 293 1227 289C1205 284 1179 277 1148 277Z" fill="url(#paint24_linear_28_307)"/>
<path d="M1385 913L1334 911C1225 905 1154 872 1118 810C1086 757 1084 689 1082 629C1081 587 1080 548 1069 519C1035 428 1000 405 978 392C965 384 957 378 957 363C958 354 973 343 1004 331C1032 321 1071 309 1118 298C1166 286 1203 294 1234 300C1248 304 1261 306 1272 306C1308 306 1317 304 1344 295C1362 290 1386 282 1431 271C1530.5 253.067 1632.79 258.199 1730 286C1769 297 1802 312 1831 329C1881 360 1913 399 1924 447C1935 494 1935 543 1922 591C1909 640 1884 685 1850 727C1794.61 790.256 1724.08 838.425 1645 867C1562.24 899.402 1473.86 915.038 1385 913ZM1167 294C1151 294 1134 296 1118 300C1021 323 960 347 959 363C959 377 967 382 979 390C1001 404 1037 426 1071 519C1082 548 1083 587 1084 629C1086 689 1088 756 1119 809C1156 871 1226 903 1334 909C1392 912 1448 910 1501 902C1552 895 1600 883 1644 866C1727 834 1798 785 1848 726C1883 684 1907 639 1920 591C1933 543 1933 494 1922 447C1911 400 1880 361 1830 330C1792 308 1726 278 1618 267C1549 259 1478 262 1432 273C1387 284 1362 291 1344 297C1318 305 1309 308 1272 308C1261 308 1248 306 1233 302C1214 298 1193 294 1167 294Z" fill="url(#paint25_linear_28_307)"/>
<path d="M1396 873H1356C1259 868 1195 840 1161 787C1130 741 1126 681 1123 629C1120 590 1118 554 1106 527C1072 446 1037 424 1017 411C1004 403 995 397 996 382C995 361 1068 333 1135 315C1178 303 1213 309 1240 314C1252 316 1263 318 1273 318C1314 318 1322 316 1363 306L1427 290C1510.78 277.167 1596.2 279.879 1679 298C1731 310 1774 328 1808 350C1847 377 1872 410 1882 448C1893 491 1892 535 1881 580C1870 623 1848 665 1817 703C1773 757 1710 802 1635 831C1564 859 1483 873 1396 873ZM1187 310C1169 310 1152 312 1136 317C1055 338 997 366 998 382C997 396 1005 401 1018 410C1039 423 1073 445 1107 527C1120 554 1122 590 1125 629C1128 681 1132 740 1162 786C1197 839 1260 866 1357 871C1459 876 1552 862 1635 829C1709 800 1771 756 1816 702C1847 664 1868 623 1879 579C1890 535 1891 491 1880 448C1870 410 1846 378 1807 352C1774 329 1730 312 1679 300C1596.23 281.671 1510.77 278.958 1427 292L1364 308C1323.9 320.533 1281.38 323.276 1240 316C1224 313 1207 310 1187 310Z" fill="url(#paint26_linear_28_307)"/>
<path d="M1407 835L1379 834C1294 832 1236 808 1204 764C1175 724 1169 675 1163 628C1159 593 1155 560 1142 536C1108 465 1077 444 1056 431C1042 422 1034 416 1034 401C1033 383 1085 352 1152 332C1192 320 1223 324 1247 327L1274 329H1278C1327 330 1331 330 1422 310C1498.41 298.243 1576.31 300.275 1652 316C1700 327 1740 342 1771 362C1807 386 1830 415 1839 449C1850 488 1850 529 1841 568C1831 607 1813 645 1785 679C1746 728 1691 768 1626 795C1560 821 1487 835 1407 835ZM1208 326C1189 326 1171 328 1153 334C1088 353 1035 384 1036 401C1036 415 1044 420 1057 429C1077 442 1109 463 1144 535C1157 559 1161 593 1165 628C1171 675 1177 724 1205 763C1237 807 1294 830 1379 832C1470 836 1553 822 1625 793C1690 766 1745 727 1784 678C1811 644 1830 607 1839 567C1848 528 1848 488 1838 450C1828 416 1806 387 1770 364C1739 344 1700 329 1652 318C1576.62 302.522 1499.09 300.491 1423 312C1331 332 1327 332 1278 331H1274L1247 329C1235 327 1222 326 1208 326Z" fill="url(#paint27_linear_28_307)"/>
<path d="M1417 796L1402 795C1236 794 1219 705 1204 626C1198 595 1193 566 1179 544C1145 483 1115 463 1095 450C1081 441 1072 435 1072 421C1072 412 1081 399 1099 386C1117 372 1143 359 1170 350C1206 337 1233 338 1257 340L1275 341L1298 342C1329 343 1348 344 1418 330C1462 321 1546 318 1626 335C1669 344 1706 357 1734 375C1767 395 1788 420 1797 450C1807 485 1808 521 1800 556C1793 591 1777 625 1753 656C1720 699 1672 734 1616 758C1557 783 1490 796 1417 796ZM1231 341C1210 340 1190 344 1170 351C1112 371 1073 404 1074 421C1074 434 1082 440 1096 449C1116 462 1146 482 1180 543C1194 565 1200 595 1206 626C1213 666 1221 707 1248 739C1278 775 1328 793 1402 794C1481 796 1553 783 1615 757C1671 733 1719 697 1752 655C1775 624 1791 591 1799 555C1806 521 1805 485 1795 451C1784 412 1745 361 1626 336C1546 320 1462 322 1418 331C1371.49 343.834 1323 347.903 1275 343L1257 342L1231 341Z" fill="url(#paint28_linear_28_307)"/>
<path d="M1420 757C1359 757 1317 743 1289 716C1264 690 1255 657 1246 624C1238 597 1231 571 1215 552C1182 502 1154 483 1135 470C1120 460 1111 454 1111 440C1109 421 1141 385 1187 367C1223 351 1249 352 1273 353H1276L1308 355C1334 357 1358 360 1413 349C1454 342 1529 340 1600 353C1659 364 1734 391 1754 452C1773 511 1761 577 1721 632C1693 669 1654 700 1606 722C1554 745 1494 757 1427 757H1420ZM1258 354C1238 354 1216 356 1188 368C1138 388 1110 423 1112 440C1113 454 1121 459 1136 469C1155 482 1183 501 1216 551C1232 571 1239 597 1247 624C1256 656 1266 689 1290 715C1318 743 1362 756 1425 755H1428C1494 755 1554 744 1606 720C1653 699 1692 668 1720 631C1740 604 1753 575 1759 544C1764 513 1763 482 1753 452C1733 392 1658 366 1599 355C1529 341 1454 343 1414 351C1358 361 1334 359 1308 356L1276 354H1258Z" fill="url(#paint29_linear_28_307)"/>
<path d="M1432 719C1388 719 1355 710 1332 691C1309 672 1298 646 1287 621C1278 599 1268 577 1251 560C1220 521 1193 503 1176 491C1160 480 1150 474 1149 459C1146 441 1167 403 1205 384C1231 369 1253 363 1277 364L1313 368C1338 372 1364 376 1409 369C1445 363 1512 361 1573 372C1626 381 1693 402 1712 453C1730 504 1722 561 1689 609C1667 640 1635 667 1596 685C1544.8 709.178 1488.59 720.832 1432 719ZM1273 365C1250 365 1230 372 1205 386C1168 404 1148 441 1150 459C1151 473 1160 479 1177 490C1194 502 1221 520 1252 559C1269 576 1279 599 1288 620C1299 645 1310 671 1333 690C1358 711 1396 719 1448 717C1504 716 1553 705 1596 684C1634 666 1666 639 1688 608C1720 561 1729 504 1711 453C1692 403 1625 382 1573 373C1512 362 1446 364 1409 370C1364 378 1338 374 1313 370C1301 368 1290 366 1277 366L1273 365Z" fill="url(#paint30_linear_28_307)"/>
<path d="M1443 681C1372 681 1351 649 1328 616C1317 599 1306 582 1288 568C1259 540 1236 525 1219 513C1199 501 1188 494 1187 479C1186 469 1188 454 1193 440C1200 423 1210 409 1222 402C1241 386 1258 375 1278 376C1291 376 1304 379 1317 382C1341 388 1368 394 1405 389C1430 385 1489 382 1547 390C1577 394 1602 401 1622 411C1646 422 1662 436 1670 454C1687 497 1683 545 1657 586C1641 611 1617 633 1587 649C1554 667 1515 677 1471 680L1443 681ZM1276 377C1257 377 1241 388 1223 403C1195 421 1186 462 1188 479C1190 493 1200 500 1219 512C1236 524 1260 539 1289 567C1307 581 1318 598 1329 615C1342 634 1354 652 1375 664C1398 678 1428 683 1471 679C1515 676 1553 666 1586 648C1616 632 1640 610 1656 585C1681 545 1686 497 1669 455C1661 437 1645 423 1622 412C1602 402 1576 395 1546 391C1489 383 1430 386 1405 390C1368 395 1340 389 1316 383C1303 380 1291 378 1278 377H1276Z" fill="url(#paint31_linear_28_307)"/>
<path d="M1454 645C1411 645 1391 628 1367 608C1355 597 1342 586 1324 576C1301 559 1283 548 1267 539C1242 523 1227 514 1225 498C1222 480 1223 436 1239 419L1242 415C1253 401 1263 386 1279 387C1292 388 1305 392 1320 396C1344 403 1371 411 1400 408C1432 405 1593 394 1627 455C1635.69 471.708 1640.14 490.294 1639.97 509.125C1639.79 527.956 1635 546.456 1626 563C1615 583 1599 600 1577 613C1554 628 1526 637 1494 641C1481 644 1467 645 1454 645ZM1278 388C1263 388 1253 402 1243 416L1240 420C1224 437 1223 480 1226 498C1228 514 1243 522 1268 538C1283 547 1302 558 1325 575C1343 585 1356 596 1368 607C1398 633 1422 653 1494 640C1526 636 1554 627 1577 613C1598 599 1614 582 1625 562C1633.74 545.734 1638.4 527.588 1638.57 509.123C1638.74 490.659 1634.43 472.428 1626 456C1612 431 1577 416 1520 409C1470 404 1420 408 1400 409C1371 412 1344 404 1320 397C1305 393 1291 389 1279 388H1278Z" fill="url(#paint32_linear_28_307)"/>
<path d="M1460 614C1435 614 1414 605 1386 594L1361 584L1342 575C1290 550 1267 539 1264 517C1260 502 1250 453 1257 437C1260 418 1266 398 1280 399C1292 400 1307 406 1324 411C1347 419 1373 429 1396 428L1411 427C1435 426 1472 425 1506 428C1546 431 1573 441 1585 457C1602 482 1606 514 1596 541C1584 571 1556 593 1517 603C1494 610 1476 614 1460 614ZM1279 400C1266 400 1261 419 1258 437C1251 453 1261 501 1265 517C1268 538 1291 549 1342 574L1361 583L1387 593C1432 611 1457 622 1516 602C1555 592 1583 570 1595 541C1605 514 1601 482 1584 457C1572 442 1546 432 1506 429C1472 425 1435 427 1411 428L1396 429C1373 430 1347 420 1323 412C1307 406 1292 401 1280 400H1279Z" fill="url(#paint33_linear_28_307)"/>
<path d="M1445 597C1429 597 1413 595 1397 592C1335 576 1307 559 1302 537L1286 488C1280.09 469.588 1275.09 450.899 1271 432C1270 424 1272 417 1275 413C1275.77 412.219 1276.72 411.631 1277.76 411.284C1278.8 410.936 1279.91 410.839 1281 411C1292 412 1310 419 1329 427C1352 437 1376 446 1391 448L1429 447C1468 445 1521 442 1542 458C1561 475 1572 498 1570 520C1568 538 1557 554 1540 564C1512.96 585.391 1479.48 597.019 1445 597ZM1280 411C1278.98 411.034 1277.99 411.327 1277.11 411.852C1276.24 412.377 1275.51 413.116 1275 414C1270 421 1270 442 1275 454L1287 488L1303 536C1307 559 1336 575 1397 591C1429 598 1456 598 1479 593C1500 588 1519 579 1539 564C1557 553 1567 538 1569 520C1571 499 1560 475 1542 459C1521 442 1468 445 1429 448L1391 449C1375 447 1352 438 1329 428C1313.35 420.527 1296.91 414.825 1280 411Z" fill="url(#paint34_linear_28_307)"/>
<path d="M1439 600H1434C1403 599 1380 594 1364 584C1351 577 1343 568 1340 556C1335 537 1306 486 1292 471C1286 466 1282 457 1279 446C1276 437 1276 428 1278 424C1278.39 423.306 1278.98 422.745 1279.69 422.389C1280.41 422.032 1281.21 421.897 1282 422C1293 424 1318 436 1342 447C1361 456 1378 465 1387 467C1397 470 1418 467 1440 464C1462 460 1486 457 1500 459C1514 462 1531 470 1544 482C1558 495 1565 511 1563 526C1560 543 1545 562 1522 576C1498 592 1469 600 1439 600ZM1281 423H1280L1279 425C1275 432 1280 459 1292 471C1307 486 1336 537 1341 556C1344 567 1352 577 1364 584C1380 593 1404 598 1434 599C1465 601 1496 592 1522 576C1544 561 1560 542 1562 525C1564 511 1557 496 1543 482C1530.88 470.968 1516.04 463.373 1500 460C1486 457 1462 461 1440 464C1418 468 1397 471 1387 468C1378 466 1360 457 1342 448C1318 437 1293 425 1282 423H1281Z" fill="url(#paint35_linear_28_307)"/>
<path d="M753 287H742C724 283 708 272 693 260C683 252 659 253 636 254C613 256 592 257 586 248C584 243 585 237 590 228C633 161 715 114 777 86C846 55 917 37 952 34C996 30 1042 33 1047 47C1049 52 1045 58 1035 64C998 87 851 219 807 261C789 279 771 287 753 287ZM662 251C676 251 688 253 695 258C709 270 725 281 743 284C764 288 784 280 805 260C850 217 997 86 1034 62C1042 56 1046 51 1045 48C1041 37 1002 32 952 36C918 39 847 58 778 88C716 116 634 162 592 229C587 237 586 243 588 247C593 255 614 254 636 252L662 251Z" fill="url(#paint36_linear_28_307)"/>
<path d="M757 277L748 276C731 273 716 263 702 252C693 244 671 245 649 246C628 248 608 249 603 240C600 236 601 230 606 222C646 160 722 116 779 90C844 62 910 44 942 42C983 38 1026 41 1031 54C1032 58 1028 64 1019 69C985 91 849 213 807 253C791 269 774 277 757 277ZM673 243C686 243 697 245 704 250C731 272 763 292 806 251C847 212 984 90 1018 68C1026 63 1030 58 1029 54C1025 44 989 40 943 44C911 46 845 64 780 92C723 118 647 161 608 223C604 231 602 236 604 239C609 247 628 246 649 244L673 243Z" fill="url(#paint37_linear_28_307)"/>
<path d="M762 267L753 266C737 263 723 253 711 243C702 236 682 237 662 239C641 240 624 241 619 233C617 229 618 224 622 216C659 158 729 118 782 94C842 68 903 51 933 49C971 46 1010 49 1014 60C1016 65 1012 70 1004 75C972 95 846 208 808 244C793 259 777 267 762 267ZM685 236C696 236 707 237 712 242C724 251 738 261 753 264C771 267 789 260 807 243C845 206 971 94 1003 74C1010 69 1014 64 1013 61C1010 52 976 48 933 51C904 53 843 70 783 96C730 120 660 160 624 217C620 224 619 229 620 232C625 239 643 238 662 237L685 236Z" fill="url(#paint38_linear_28_307)"/>
<path d="M767 256H758C744 253 731 243 720 235C712 228 693 229 675 231C656 232 639 233 635 226C633 222 634 217 638 210C672 157 737 120 785 98C840 74 896 59 923 57C958 54 994 56 998 67C999 71 996 76 988 81C959 99 844 202 809 236C795 250 781 256 767 256ZM696 228C707 228 716 229 721 233C732 242 744 251 759 254C775 257 791 251 808 235C842 201 958 98 987 79C994 75 997 71 996 68C994 60 963 56 924 59C896 61 840 75 786 100C737 122 673 159 640 211C636 217 635 222 637 225C640 231 657 230 675 229L696 228Z" fill="url(#paint39_linear_28_307)"/>
<path d="M771 246L764 245C750 243 739 234 729 226C721 220 704 222 687 223C670 224 655 225 651 219C649 215 650 211 654 205C685 156 744 122 788 102C838 80 889 66 914 65C945 62 978 64 982 74C983 78 980 82 973 86C947 103 841 197 809 228C797 240 784 246 771 246ZM708 220C717 220 725 221 730 225C752 243 776 257 808 226C840 196 946 102 972 85C978 81 981 78 980 75C978 67 950 64 914 66C889 68 838 81 789 104C744 124 686 157 656 205C652 211 651 215 653 218C656 223 671 222 687 221L708 220Z" fill="url(#paint40_linear_28_307)"/>
<path d="M776 236L769 235C757 233 747 225 738 218C731 213 715 214 700 215C685 216 671 217 668 211C666 208 667 204 670 199C697 155 751 124 791 106C836 86 882 74 904 72C933 70 962 72 965 81C966 84 964 88 957 92C934 107 839 192 810 219C799 230 787 236 776 236ZM719 213C727 213 735 214 739 217C748 224 758 231 769 234C783 236 796 231 809 218C838 191 933 106 957 91C962 87 965 84 964 81C962 75 937 71 905 74C882 75 836 87 791 108C752 125 698 156 672 199C668 205 668 208 669 211C672 216 686 215 700 214L719 213Z" fill="url(#paint41_linear_28_307)"/>
<path d="M781 225H775C764 223 756 217 747 210C741 205 726 206 713 207C699 208 687 209 684 204C682 202 683 198 686 193C710 154 758 126 793 110C834 92 875 81 895 80C920 78 946 80 949 88C950 91 948 94 942 98C921 111 836 186 811 211C801 221 791 225 781 225ZM730 205C738 205 744 206 748 209C762 220 783 236 810 210C835 185 920 110 941 97C946 93 949 91 948 88C946 82 924 79 895 81C875 83 834 93 794 112C759 127 711 155 687 194C685 198 684 201 685 203C688 208 700 207 713 206L730 205Z" fill="url(#paint42_linear_28_307)"/>
<path d="M785 215C773 215 764 207 756 201C750 197 737 198 726 199C714 200 703 201 700 197C699 195 699 191 702 187C723 152 765 128 796 114C832 98 868 89 886 87C907 86 930 88 933 95C890.889 128.957 850.505 165.002 812 203C802 212 793 215 785 215ZM742 197C748 197 753 198 756 200C770 211 787 224 811 201C849.533 163.663 889.917 128.285 932 95C930 90 910 87 886 89C868 90 832 99 797 115C766 129 724 153 703 188C701 192 700 194 701 196C704 200 714 199 726 198L742 197Z" fill="url(#paint43_linear_28_307)"/>
<path d="M790 205C780 205 772 198 765 193H764C760 189 749 190 739 191C728 193 719 193 716 190C715 188 716 185 718 181C736 151 772 130 799 118C830 104 861 96 876 95C895 94 914 95 916 102C879.814 130.905 845.103 161.61 812 194C804 202 797 205 790 205ZM753 189C758 189 762 190 765 192C778 201 792 212 811 193C844.149 160.974 878.857 130.604 915 102C914 97 897 95 876 96C861 97 830 105 800 119C773 131 737 152 719 182C717 185 716 187 717 189C720 192 729 191 739 190L753 189Z" fill="url(#paint44_linear_28_307)"/>
<path d="M795 194C787 194 780 189 774 185L773 184C769 182 760 183 752 184C743 185 735 185 733 182C732 181 732 178 734 175C762 129 844 104 867 103H889C896 104 899 106 900 108C901 110 899 113 895 115C882 123 829 170 813 185C806 192 800 194 795 194ZM764 182C768 182 772 182 774 184H775C785 192 796 200 812 185C839.72 158.237 868.756 132.873 899 109C898 105 884 103 867 104C844 105 762 129 735 176C733 179 733 181 734 182C735 184 743 184 751 183L764 182Z" fill="url(#paint45_linear_28_307)"/>
<path d="M799 184C793 184 788 180 784 177L782 176C779 174 771 175 764 176C757 177 751 178 749 175C748 174 749 172 750 169C772 131 839 112 857 111C869 110 882 111 884 115C859.66 134.501 836.298 155.193 814 177C808 182 804 184 799 184ZM776 174L783 175L784 176C792 182 801 188 813 176C835.307 154.517 858.669 134.159 883 115C882 112 871 111 857 111C839 112 773 132 751 170C749 172 749 174 750 174C751 177 758 176 764 175L776 174Z" fill="url(#paint46_linear_28_307)"/>
<path d="M804 174C800 174 796 171 793 169L791 168C789 166 782 167 777 168C772 169 767 170 765 168L766 164C775 148 793 137 808 130C823 123 840 119 848 118C856 118 866 119 867 122C848.575 136.79 830.887 152.476 814 169C810 172 807 174 804 174ZM787 166L791 167L793 168C799 172 805 176 814 168C830.911 151.817 848.598 136.465 867 122C866 120 858 118 848 119C834 119 783 135 767 164L766 167C767 169 772 168 777 167L787 166Z" fill="url(#paint47_linear_28_307)"/>
<path d="M317 483H313C312 481 311 479 312 477C314 466 336 429 364 388C411 322 440 294 450 285C495 247 538 222 560 222C569 222 570 230 571 239C573 251 574 264 594 268C611 271 632 271 651 271C675 271 694 271 697 278C697.359 278.784 697.546 279.637 697.546 280.5C697.546 281.363 697.359 282.216 697 283C694 291 673 298 628 313L601 321C569 332 508 371 448 410C378 455 332 483 317 483ZM560 224C536 224 488 256 452 287C430 305 399 343 366 390C338 430 316 466 314 477C313 480 314 481 315 481C318 483 334 477 360 462L447 408C507 369 568 330 600 319L627 310C669 297 692 289 695 282C695.351 281.392 695.536 280.702 695.536 280C695.536 279.298 695.351 278.608 695 278C693 273 672 273 651 273C632 273 610 273 594 270C573 266 571 251 569 239C568 229 567 224 560 224Z" fill="url(#paint48_linear_28_307)"/>
<path d="M330 470L327 469C325 468 325 466 325 463C326 452 349 415 371 383C395.452 346.25 423.965 312.369 456 282C494 250 530 230 550 230C558 230 559 237 561 245C562 256 564 268 581 271C597 274 616 274 634 274C656 274 673 274 676 280C676.524 280.709 676.885 281.524 677.058 282.388C677.23 283.253 677.211 284.144 677 285C675 293 654 300 609 315L592 321C564 330 509 366 455 400C388 442 345 470 330 470ZM550 232C531 232 495 252 458 284L451 290C400.209 340.642 358.291 399.461 327 464L328 467C332 470 346 464 371 449L454 398C508 364 564 328 592 319L609 313C652 298 673 291 675 285C675.351 284.392 675.536 283.702 675.536 283C675.536 282.298 675.351 281.608 675 281C672 276 654 276 634 276C616 276 597 276 581 273C562 270 560 256 559 245C557 237 556 232 550 232Z" fill="url(#paint49_linear_28_307)"/>
<path d="M343 456L340 455L338 450C366.457 388.488 405.75 332.597 454 285C488 256 521 238 539 237H540C548 237 549 244 550 251C551 261 553 272 569 275C583 277 601 277 617 277C637 277 653 277 656 283L658 288C656 295 637 302 589 318L584 320C559 329 510 360 462 390C399 430 357 456 343 456ZM540 239C522 239 489 258 456 287L449 293C403.954 338.713 367.085 391.817 340 450L341 453C345 456 359 450 383 437L461 389C509 358 559 327 584 318L589 316C633 301 654 293 656 287C656 286 656 285 654 284C652 279 635 279 617 279C601 279 583 279 569 277C551 273 549 261 548 252C547 244 546 239 540 239Z" fill="url(#paint50_linear_28_307)"/>
<path d="M357 442L354 441C353.306 440.608 352.745 440.018 352.389 439.306C352.032 438.593 351.897 437.79 352 437C348 420 412 327 447 294L453 289C483 262 512 245 529 245C537 245 538 251 539 258C540 266 542 276 556 278C569 281 585 281 600 281C618 281 632 281 635 285C637 287 638 288 638 290C637 296 622 303 576 319C554 327 511 354 469 381C409 418 370 442 357 442ZM529 247C513 247 483 264 454 290L448 295C412 330 350 422 354 437V440C363 445 419 410 468 379C510 353 554 326 575 318C614 303 636 295 637 290L634 286C631 282 616 282 600 282C585 282 569 282 556 280C540 277 539 266 537 258C536 251 535 247 529 247Z" fill="url(#paint51_linear_28_307)"/>
<path d="M370 428L367 427C366.455 426.691 365.99 426.259 365.643 425.738C365.295 425.217 365.075 424.622 365 424C364 420 365 413 371 402L391 366C408.436 339.361 428.54 314.566 451 292C477 268 503 253 519 253C526 253 527 258 528 264C530 271 531 280 544 282C555 284 570 284 583 284C599 284 611 284 615 287C617 288 619 290 619 293C619 298 608 303 568 319C550 326 512 349 476 371C421 405 383 428 370 428ZM519 255C507 255 483 265 452 293L447 298C432 313 410 340 393 367C374 396 364 417 367 423V424L368 426C376 431 429 398 476 369C520.667 338.972 568.239 313.51 618 293C618 291 616 290 614 289H613C611 285 597 285 583 285C570 285 555 286 544 284C530 281 528 272 526 264C525 258 524 255 519 255Z" fill="url(#paint52_linear_28_307)"/>
<path d="M383 414L380 413C379.421 412.487 379.063 411.771 379 411C376 408 377 401 381 392C385 384 390 373 398 361C412 339 431 314 445 300L449 296C471 275 494 261 509 261C515 261 516 265 517 270C519 276 520 283 532 285C542 287 554 287 566 287C580 287 591 287 594 290C598 291 601 293 601 295C601 300 591 305 560 318C545 324 515 342 484 361C439 388 396 414 383 414ZM509 262C494 263 472 276 450 297L446 301C433 315 413 340 399 362C383 387 376 405 380 410C379.948 410.395 380.016 410.796 380.194 411.153C380.373 411.509 380.653 411.804 381 412C389 417 439 386 484 359C515 341 544 323 559 317C580 308 599 300 599 295L593 291C590 288 578 288 566 289C554 289 542 289 531 287C519 285 517 277 516 270C514 265 514 262 509 262Z" fill="url(#paint53_linear_28_307)"/>
<path d="M396 400H394C393.387 399.784 392.86 399.375 392.499 398.834C392.138 398.293 391.963 397.649 392 397C391.353 396.34 390.843 395.558 390.5 394.7C390.157 393.842 389.987 392.924 390 392C388 375 424 325 444 303L447 299C465 280 485 269 499 269C504 268 505 272 506 276C508 282 509 287 519 289L549 290C561 290 570 290 573 292C580 294 583 295 583 298C583 300 580 305 552 317C540 322 517 336 493 350C452 375 409 400 396 400ZM499 270C494 270 475 273 448 300L445 304C425 325 390 375 391 392C390.921 392.932 391.06 393.869 391.408 394.737C391.755 395.605 392.3 396.38 393 397C393.2 397.444 393.556 397.8 394 398L396 399C409 399 455 371 492 349C516 335 539 321 551 316C564 310 582 302 581 298C581 296 578 295 573 294H572C570 291 560 292 549 292C539 292 528 292 519 290C508 289 506 282 505 277C504 272 503 270 499 270Z" fill="url(#paint54_linear_28_307)"/>
<path d="M410 386H407C406.421 385.487 406.063 384.771 406 384C404.984 383.545 404.09 382.854 403.395 381.984C402.699 381.115 402.221 380.092 402 379C400 372 405 360 415 343C424.098 328.696 434.12 315 445 302C460 286 475 277 489 276C493 276 494 279 495 283C497 287 499 291 507 293H532C542 293 550 293 553 295C561 296 565 297 566 300C566 303 564 307 544 316C535 320 521 329 504 339C459 365 422 386 410 386ZM489 278C476 278 460 287 446 303L444 307C434 318 425 331 416 344C406 360 402 372 403 379C403.183 379.843 403.546 380.637 404.063 381.327C404.581 382.018 405.242 382.588 406 383H407V384C407.2 384.444 407.556 384.8 408 385C417 388 467 359 503 338L543 315C558 308 565 303 564 300C564 298 560 297 552 296L532 295L506 294C498 293 496 287 494 283C493 280 492 278 489 278Z" fill="url(#paint55_linear_28_307)"/>
<path d="M423 372H421L419 371C417.688 370.671 416.468 370.05 415.429 369.185C414.391 368.319 413.56 367.231 413 366C409 354 427 329 438 313L442 309L444 306C454 292 466 285 479 284C482 284 483 286 485 289C486 292 488 295 494 296L515 297C523 296 529 296 532 298C543 298 549 299 550 302C550 306 546 310 535 316L521 324C491 341 437 372 423 372ZM479 285C467 286 455 293 444 306C442.415 308.717 440.747 311.385 439 314C429 329 411 354 414 365C414.39 366.335 415.169 367.524 416.238 368.415C417.306 369.305 418.616 369.857 420 370C420.2 370.444 420.556 370.8 421 371H423C437 371 493 339 520 323L535 315C547 308 549 305 549 303C548 301 545 299 532 299C529 297 522 298 515 298L494 297C487 296 485 292 484 289C482 287 482 285 479 285Z" fill="url(#paint56_linear_28_307)"/>
<path d="M436 359L432 358C428 357 425 355 424 352C420 344 428 332 435 320L440 311L442 309C448 298 457 293 469 292C471 292 473 293 474 295C474.819 296.427 475.978 297.63 477.373 298.503C478.769 299.375 480.358 299.889 482 300H511C521 300 533 300 535 305C536 308 533 311 527 315C498.143 332.543 467.671 347.277 436 359ZM469 293C458 294 449 299 443 310L441 312L436 321C429 331 421 344 425 352C426 354 428 356 433 357C440 363 509 327 527 314C532 310 535 307 534 305C533 302 525 300 511 301H482C480.206 300.964 478.448 300.489 476.879 299.618C475.31 298.746 473.978 297.504 473 296C472 294 471 293 469 293Z" fill="url(#paint57_linear_28_307)"/>
<path d="M448 345L446 344C439 344 434 342 433 339C430 335 433 329 436 323C437.604 319.781 438.941 316.437 440 313C443 304 448 300 458 300L463 301L469 303H491C508 301 520 303 522 307C523 309 522 312 519 314C514 319 499 327 482 334C476 337 457 345 448 345ZM459 301C449 301 443 305 441 313L440 315L437 323C434 329 431 335 433 339C435 341 439 343 446 344C455 347 508 324 518 314C521 311 522 309 521 308C519 303 507 302 491 304H469L462 302L459 301Z" fill="url(#paint58_linear_28_307)"/>
<path d="M459 331C447 331 441 330 439 328L438 322V316L439 310C441 308 445 308 453 307L470 305C490 302 507 304 511 309C511.568 309.709 511.878 310.591 511.878 311.5C511.878 312.409 511.568 313.291 511 314C507 322 470 331 459 331ZM489 305L470 306L453 308C446 308 441 309 439 311V327C441 330 447 330 459 330C470 330 507 321 510 313C510.389 312.038 510.389 310.962 510 310C508 306 500 305 489 305Z" fill="url(#paint59_linear_28_307)"/>
<path d="M157 1439L101 1437C2.99991 1432 -68 1414 -112 1384C-156 1353 -169 1309 -151 1254C-97 1088 -43 984 -8.00009 916C7.99991 885 21 861 28 842C39 810 88 768 156 732C228 693 306 669 369 667C456 664 550 639 614 619C688 595 766 563 820 533C856 514 892 513 925 531C982 562 1023 645 1031 747C1035 795 1039 845 1040 893C1041 947 1038 992 1031 1032C1014.57 1126.87 963.196 1212.14 887 1271C814 1328 615 1389 401 1420C314 1432 231 1439 157 1439ZM875 520C857 520 839 525 821 535C766 565 689 597 615 621C551 641 456 666 369 669C306 671 229 695 157 734C90 770 41 811 30 843C23 862 9.99991 886 -6.00009 917C-41 985 -95 1089 -149 1255C-167 1309 -154 1352 -110 1382C-67 1412 3.99991 1430 102 1435C187 1439 291 1433 401 1417C614 1387 813 1326 885 1270C961.132 1211.52 1012.52 1126.58 1029 1032C1045 943 1037 843 1029 747C1021 646 981 564 924 533C909 525 892 521 875 520Z" fill="url(#paint60_linear_28_307)"/>
<path d="M169 1402L125 1401C35 1397 -31 1382 -71 1354C-111 1326 -123 1287 -107 1238C-61 1089 -13 990 19 925C34 894 46 870 53 850C64 819 110 779 172 744C238 708 311 685 370 683C514.366 667.984 654.899 627.348 785 563C818 546 851 546 882 562C934 592 972 668 980 761C987 849 994 940 979 1023C963.575 1110.6 916.18 1189.35 846 1244C780 1297 596 1355 400 1384C317 1396 238 1402 169 1402ZM835 552C819 552 803 556 787 564C656.353 628.943 515.117 669.925 370 685C311 687 239 710 173 746C111 780 66 820 55 851C48 871 36 895 21 926C-11 991 -59 1090 -105 1239C-121 1287 -109 1325 -69 1353C-30 1380 35 1395 125 1399C204 1403 298 1397 399 1382C596 1353 779 1295 845 1243C914.814 1188.62 961.873 1110.19 977 1023C992 940 985 849 978 761C970 668 933 593 881 564C867 556 851 552 835 552Z" fill="url(#paint61_linear_28_307)"/>
<path d="M181 1366H148C66 1363 6.99986 1349 -30 1324C-66 1300 -77 1266 -64 1222C-25 1090 17 999 47 932C61 902 72 878 79 859C89 828 130 790 188 757C248 723 315 701 372 698C505 692 671 631 751 592C781 577 811 578 839 594C887 621 921 690 928 775C934 851 941 937 927 1015C912.879 1094.92 869.801 1166.84 806 1217C775 1242 719 1267 644 1291C493.865 1337.24 338.054 1362.47 181 1366ZM794 584C780 584 766 587 752 594C672 633 505 694 372 700C316 703 249 725 189 759C132 791 91 829 80 860C74 879 63 903 49 933C18 1000 -23 1090 -62 1223C-75 1265 -64 1299 -28 1323C6.99986 1347 67 1361 148 1364C315.746 1363.88 482.551 1338.94 643 1290C719 1266 774 1240 805 1216C868.499 1165.73 911.226 1093.81 925 1014C940 937 932 851 926 775C919 691 885 622 838 595C824 588 809 584 794 583V584Z" fill="url(#paint62_linear_28_307)"/>
<path d="M193 1330H172C97.9999 1328 43.9999 1316 10.9999 1295C-20.0001 1273 -31.0001 1244 -20.0001 1206C10.9999 1089 47.9999 1002 75.9999 938C86.9999 910 97.9999 887 104 868C115 837 152 800 204 770C258 738 320 717 373 714C491.712 701.189 607.741 670.158 717 622C743 609 771 610 796 625C839 650 870 713 876 789C883 868 888 940 875 1006C861.98 1078.69 822.863 1144.12 765 1190C738 1213 687 1237 619 1259C481.062 1302.65 337.639 1326.55 193 1330ZM753 615C741 615 729 618 717 623C607.683 670.994 491.68 702.018 373 715C320 719 259 740 205 771C153 802 116 838 106 868L76.9999 939C49.9999 1002 12.9999 1089 -18.0001 1206C-29.0001 1243 -19.0001 1273 11.9999 1293C44.9999 1314 97.9999 1326 172 1328C323.696 1326.62 474.344 1302.7 619 1257C686 1235 737 1211 765 1188C822.217 1142.57 860.958 1077.88 874 1006C886 940 881 868 874 789C868 714 838 652 795 626C782 619 768 615 753 615Z" fill="url(#paint63_linear_28_307)"/>
<path d="M206 1294H195C129 1293 81 1283 52 1265C25 1247 15 1222 24 1189C48 1087 81 1002 106 940L130 876C140 846 173 811 220 783C268 753 325 734 374 729C472 723 603 685 682 651C706 641 730 643 753 656C791 680 819 736 824 803C830 871 835 937 823 997C811.122 1061.95 776.352 1120.49 725 1162C700 1184 655 1206 594 1227C468.591 1267.99 337.894 1290.56 206 1294ZM713 646C702 646 692 649 683 653C603 686 473 725 374 731C325 735 269 754 221 784C174 813 141 847 131 877L107 940C83 1002 49 1087 26 1190C17 1221 26 1246 53 1263C82 1282 130 1292 195 1293C330.308 1290.23 464.449 1267.31 593 1225C654 1204 700 1182 724 1161C775.284 1119.86 810.067 1061.65 822 997C833 936 829 871 823 803C817 736 790 681 752 658C740 650 726 646 713 646Z" fill="url(#paint64_linear_28_307)"/>
<path d="M219 1259H218C161 1259 119 1251 93 1235C70 1221 61 1200 68 1173C84 1082 115 998 137 936L155 885C165 855 195 822 236 795C279 768 329 750 375 745C418 742 468 733 524 719C566 708 607 695 648 681C669 673 690 675 710 688C744 709 768 759 773 817C778 874 782 934 772 988C760.998 1045.63 730.229 1097.62 685 1135C641 1174 524 1216 395 1240C330 1252 269 1259 219 1259ZM672 678C664 678 656 679 648 682C559.927 713.15 468.722 734.61 376 746C330 751 279 769 237 796C196 823 166 856 156 885L139 936C116 998 86 1083 70 1174C63 1199 71 1220 94 1234C119 1249 161 1257 218 1257H219C269 1257 330 1251 395 1239C524 1214 640 1172 684 1134C728.985 1097 759.445 1045.28 770 988C781 934 776 874 771 817C766 759 742 710 709 689C698 682 685 678 672 678Z" fill="url(#paint65_linear_28_307)"/>
<path d="M231 1223C187 1223 154 1217 134 1206C115 1194 107 1178 112 1157C120 1076 150 987 171 922L180 894C190 863 216 833 252 808C289 783 333 766 377 760C407 758 489 748 613 710C631 704 650 708 667 719C696 739 717 781 721 831C725 877 729 931 720 980C710 1032 685 1074 645 1108C625 1126 590 1144 544 1162C443.541 1198.73 337.899 1219.32 231 1223ZM631 709L613 711C594 717 553 729 506 740C457 751 414 759 377 762C334 767 290 784 253 809C232.464 821.504 214.69 838.061 200.764 857.661C186.838 877.261 177.051 899.493 172 923C151 988 121 1077 113 1157C109 1178 116 1193 135 1204C156 1217 193 1223 241 1222C344.186 1217.17 446.028 1196.6 543 1161C590 1143 625 1125 644 1107C684 1073 708 1031 718 979C728 930 724 877 720 831C715 782 695 739 666 720C655 712 643 709 631 709Z" fill="url(#paint66_linear_28_307)"/>
<path d="M246 1189C214 1189 190 1184 175 1176C160 1168 153 1156 156 1141C153 1068 190 952 206 902C226 840 296 788 378 776C443 769 519 752 565 742L578 739C594 736 610 740 624 750C648 768 666 804 669 845C673 886 676 930 668 971C659 1015 638 1051 605 1081C572 1112 488 1147 392 1169C344.124 1180.53 295.213 1187.23 246 1189ZM590 740L579 741L565 744C519 754 443 770 378 777C297 789 227 841 207 903C191 952 155 1069 157 1141C154 1156 161 1167 175 1175C193 1185 224 1189 264 1187C302 1185 346 1178 392 1168C488 1146 571 1111 604 1080C679 1014 676 928 668 845C664 805 647 769 623 751C613 744 601 740 590 740Z" fill="url(#paint67_linear_28_307)"/>
<path d="M260 1154C241 1154 226 1152 215 1147C204 1142 199 1135 200 1125C193 1105 194 1071 203 1025C209 991 219 949 231 911C250 849 306 805 379 791C434.139 784.75 489.15 777.416 544 769C562 767 579 776 593 794C606 811 615 835 617 859C624 915 620 943 616 962C608 998 592 1028 564 1053C537 1081 470 1112 391 1134C340 1147 294 1154 260 1154ZM548 770H544L458 781L379 792C306 806 251 850 232 911C220 949 210 991 204 1025C196 1071 194 1105 201 1124V1125C200 1134 205 1142 216 1146C244 1159 311 1154 390 1133C470 1111 536 1081 564 1053C591 1028 607 998 615 962C622 926 620 888 616 859C614 835 605 811 592 795C580 779 564 770 548 770Z" fill="url(#paint68_linear_28_307)"/>
<path d="M276 1122L256 1120C249 1117 244 1114 243 1109C229 1097 230 1060 233 1030C237 997 246 955 257 919C266 889 281 865 301 846C321 827 347 814 380 807C430 799 481 795 509 798C523 800 537 809 547 824C558 838 564 855 566 873C572 919 572 978 524 1026C502 1051 452 1078 390 1098C345 1113 304 1122 276 1122ZM485 798C456 798 418 802 381 808C348 815 322 828 301 847C281 865 267 889 258 920C237 987 220 1089 244 1108C245 1113 249 1117 257 1119C280 1125 332 1117 390 1097C452 1077 501 1050 524 1026C571 978 571 919 565 873C563 855 557 839 547 824C536 810 523 801 509 799L485 798Z" fill="url(#paint69_linear_28_307)"/>
<path d="M295 1094L288 1092C285.282 1092.65 282.438 1092.52 279.788 1091.64C277.138 1090.75 274.787 1089.15 273 1087C262 1075 263 1043 265 1019C268 988 273 958 282 928C292 896 303 875 317 859C332 842 353 830 382 822C415 815 451 817 475 828C496 838 511 866 514 887C521 931 511 969 484 999C474 1011 459 1024 438 1037C393.997 1064.14 345.61 1083.43 295 1094ZM288 1092L295 1093C330 1093 445 1046 483 998C510 968 520 931 513 887C511 866 495 838 475 829C451 818 415 816 382 823C353 831 333 842 317 859C303 875 293 896 283 928C274 958 268 988 265 1019C263 1043 263 1074 274 1087C275.629 1089.06 277.806 1090.63 280.282 1091.51C282.757 1092.4 285.432 1092.57 288 1092Z" fill="url(#paint70_linear_28_307)"/>
<path d="M316 1081C313 1081 309 1080 307 1078C300 1073 292 1059 294 1020C296.254 968.125 309.55 917.327 333 871C344 856 358 846 383 838C397 833 410 834 422 841C448 856 461 893 462 901C466 916 463 933 455 952C448 968 436 984 421 1002C393 1033 356 1061 332 1076C326 1080 321 1081 316 1081ZM399 836C394 836 388 837 383 839C358 847 344 857 334 872C324 887 317 906 308 937C294 984 286 1062 307 1078C313 1082 321 1082 331 1075C356 1060 392 1033 420 1001C435 984 447 967 454 952C462 933 465 916 462 901C460 893 447 856 421 842C415 838 407 836 399 836Z" fill="url(#paint71_linear_28_307)"/>
</g>
</g>
<defs>
<linearGradient id="paint0_linear_28_307" x1="266.9" y1="471.8" x2="917.4" y2="471.8" gradientUnits="userSpaceOnUse">
<stop stop-color="#00C677"/>
<stop offset="1" stop-color="#F2F7F5"/>
</linearGradient>
<linearGradient id="paint1_linear_28_307" x1="288.5" y1="476.6" x2="882.4" y2="476.6" gradientUnits="userSpaceOnUse">
<stop stop-color="#00C677"/>
<stop offset="1" stop-color="#F2F7F5"/>
</linearGradient>
<linearGradient id="paint2_linear_28_307" x1="310" y1="481.5" x2="847" y2="481.5" gradientUnits="userSpaceOnUse">
<stop stop-color="#00C677"/>
<stop offset="1" stop-color="#F2F7F5"/>
</linearGradient>
<linearGradient id="paint3_linear_28_307" x1="331.5" y1="486.3" x2="811.9" y2="486.3" gradientUnits="userSpaceOnUse">
<stop stop-color="#00C677"/>
<stop offset="1" stop-color="#F2F7F5"/>
</linearGradient>
<linearGradient id="paint4_linear_28_307" x1="353" y1="491" x2="776.7" y2="491" gradientUnits="userSpaceOnUse">
<stop stop-color="#00C677"/>
<stop offset="1" stop-color="#F2F7F5"/>
</linearGradient>
<linearGradient id="paint5_linear_28_307" x1="374.4" y1="495.7" x2="741.5" y2="495.7" gradientUnits="userSpaceOnUse">
<stop stop-color="#00C677"/>
<stop offset="1" stop-color="#F2F7F5"/>
</linearGradient>
<linearGradient id="paint6_linear_28_307" x1="396" y1="500.5" x2="706.3" y2="500.5" gradientUnits="userSpaceOnUse">
<stop stop-color="#00C677"/>
<stop offset="1" stop-color="#F2F7F5"/>
</linearGradient>
<linearGradient id="paint7_linear_28_307" x1="417.4" y1="505.2" x2="671.1" y2="505.2" gradientUnits="userSpaceOnUse">
<stop stop-color="#00C677"/>
<stop offset="1" stop-color="#F2F7F5"/>
</linearGradient>
<linearGradient id="paint8_linear_28_307" x1="438.9" y1="509.9" x2="636" y2="509.9" gradientUnits="userSpaceOnUse">
<stop stop-color="#00C677"/>
<stop offset="1" stop-color="#F2F7F5"/>
</linearGradient>
<linearGradient id="paint9_linear_28_307" x1="459.1" y1="514.2" x2="600.8" y2="514.2" gradientUnits="userSpaceOnUse">
<stop stop-color="#00C677"/>
<stop offset="1" stop-color="#F2F7F5"/>
</linearGradient>
<linearGradient id="paint10_linear_28_307" x1="476.3" y1="517.9" x2="565.8" y2="517.9" gradientUnits="userSpaceOnUse">
<stop stop-color="#00C677"/>
<stop offset="1" stop-color="#F2F7F5"/>
</linearGradient>
<linearGradient id="paint11_linear_28_307" x1="488.9" y1="520.7" x2="531.6" y2="520.7" gradientUnits="userSpaceOnUse">
<stop stop-color="#00C677"/>
<stop offset="1" stop-color="#F2F7F5"/>
</linearGradient>
<linearGradient id="paint12_linear_28_307" x1="793.9" y1="191.2" x2="1364.8" y2="191.2" gradientUnits="userSpaceOnUse">
<stop stop-color="#00C677"/>
<stop offset="1" stop-color="#F2F7F5"/>
</linearGradient>
<linearGradient id="paint13_linear_28_307" x1="815.1" y1="188" x2="1344.8" y2="188" gradientUnits="userSpaceOnUse">
<stop stop-color="#00C677"/>
<stop offset="1" stop-color="#F2F7F5"/>
</linearGradient>
<linearGradient id="paint14_linear_28_307" x1="836.2" y1="184.9" x2="1325.1" y2="184.9" gradientUnits="userSpaceOnUse">
<stop stop-color="#00C677"/>
<stop offset="1" stop-color="#F2F7F5"/>
</linearGradient>
<linearGradient id="paint15_linear_28_307" x1="857.3" y1="181.7" x2="1305.6" y2="181.7" gradientUnits="userSpaceOnUse">
<stop stop-color="#00C677"/>
<stop offset="1" stop-color="#F2F7F5"/>
</linearGradient>
<linearGradient id="paint16_linear_28_307" x1="878.4" y1="177.9" x2="1286.4" y2="177.9" gradientUnits="userSpaceOnUse">
<stop stop-color="#00C677"/>
<stop offset="1" stop-color="#F2F7F5"/>
</linearGradient>
<linearGradient id="paint17_linear_28_307" x1="899.5" y1="173.7" x2="1267.7" y2="173.7" gradientUnits="userSpaceOnUse">
<stop stop-color="#00C677"/>
<stop offset="1" stop-color="#F2F7F5"/>
</linearGradient>
<linearGradient id="paint18_linear_28_307" x1="920.4" y1="169.4" x2="1249.5" y2="169.4" gradientUnits="userSpaceOnUse">
<stop stop-color="#00C677"/>
<stop offset="1" stop-color="#F2F7F5"/>
</linearGradient>
<linearGradient id="paint19_linear_28_307" x1="941.2" y1="164.8" x2="1232.2" y2="164.8" gradientUnits="userSpaceOnUse">
<stop stop-color="#00C677"/>
<stop offset="1" stop-color="#F2F7F5"/>
</linearGradient>
<linearGradient id="paint20_linear_28_307" x1="961.5" y1="160" x2="1216.3" y2="160" gradientUnits="userSpaceOnUse">
<stop stop-color="#00C677"/>
<stop offset="1" stop-color="#F2F7F5"/>
</linearGradient>
<linearGradient id="paint21_linear_28_307" x1="980.8" y1="158" x2="1202.4" y2="158" gradientUnits="userSpaceOnUse">
<stop stop-color="#00C677"/>
<stop offset="1" stop-color="#F2F7F5"/>
</linearGradient>
<linearGradient id="paint22_linear_28_307" x1="995.3" y1="157.5" x2="1192.4" y2="157.5" gradientUnits="userSpaceOnUse">
<stop stop-color="#00C677"/>
<stop offset="1" stop-color="#F2F7F5"/>
</linearGradient>
<linearGradient id="paint23_linear_28_307" x1="995.6" y1="156.5" x2="1189.4" y2="156.5" gradientUnits="userSpaceOnUse">
<stop stop-color="#00C677"/>
<stop offset="1" stop-color="#F2F7F5"/>
</linearGradient>
<linearGradient id="paint24_linear_28_307" x1="919.1" y1="604.3" x2="1974.4" y2="604.3" gradientUnits="userSpaceOnUse">
<stop stop-color="#00C677"/>
<stop offset="1" stop-color="#F2F7F5"/>
</linearGradient>
<linearGradient id="paint25_linear_28_307" x1="957.4" y1="594.5" x2="1932" y2="594.5" gradientUnits="userSpaceOnUse">
<stop stop-color="#00C677"/>
<stop offset="1" stop-color="#F2F7F5"/>
</linearGradient>
<linearGradient id="paint26_linear_28_307" x1="995.7" y1="584.5" x2="1889.7" y2="584.5" gradientUnits="userSpaceOnUse">
<stop stop-color="#00C677"/>
<stop offset="1" stop-color="#F2F7F5"/>
</linearGradient>
<linearGradient id="paint27_linear_28_307" x1="1034" y1="574.7" x2="1847.4" y2="574.7" gradientUnits="userSpaceOnUse">
<stop stop-color="#00C677"/>
<stop offset="1" stop-color="#F2F7F5"/>
</linearGradient>
<linearGradient id="paint28_linear_28_307" x1="1072.2" y1="564.9" x2="1805.3" y2="564.9" gradientUnits="userSpaceOnUse">
<stop stop-color="#00C677"/>
<stop offset="1" stop-color="#F2F7F5"/>
</linearGradient>
<linearGradient id="paint29_linear_28_307" x1="1110.4" y1="555.2" x2="1763.2" y2="555.2" gradientUnits="userSpaceOnUse">
<stop stop-color="#00C677"/>
<stop offset="1" stop-color="#F2F7F5"/>
</linearGradient>
<linearGradient id="paint30_linear_28_307" x1="1148.6" y1="545.8" x2="1721.4" y2="545.8" gradientUnits="userSpaceOnUse">
<stop stop-color="#00C677"/>
<stop offset="1" stop-color="#F2F7F5"/>
</linearGradient>
<linearGradient id="paint31_linear_28_307" x1="1186.7" y1="532.2" x2="1680.2" y2="532.2" gradientUnits="userSpaceOnUse">
<stop stop-color="#00C677"/>
<stop offset="1" stop-color="#F2F7F5"/>
</linearGradient>
<linearGradient id="paint32_linear_28_307" x1="1223.8" y1="519.5" x2="1639.7" y2="519.5" gradientUnits="userSpaceOnUse">
<stop stop-color="#00C677"/>
<stop offset="1" stop-color="#F2F7F5"/>
</linearGradient>
<linearGradient id="paint33_linear_28_307" x1="1254.6" y1="508.9" x2="1601.3" y2="508.9" gradientUnits="userSpaceOnUse">
<stop stop-color="#00C677"/>
<stop offset="1" stop-color="#F2F7F5"/>
</linearGradient>
<linearGradient id="paint34_linear_28_307" x1="1270.5" y1="506.2" x2="1569.8" y2="506.2" gradientUnits="userSpaceOnUse">
<stop stop-color="#00C677"/>
<stop offset="1" stop-color="#F2F7F5"/>
</linearGradient>
<linearGradient id="paint35_linear_28_307" x1="1276.9" y1="513.3" x2="1563" y2="513.3" gradientUnits="userSpaceOnUse">
<stop stop-color="#00C677"/>
<stop offset="1" stop-color="#F2F7F5"/>
</linearGradient>
<linearGradient id="paint36_linear_28_307" x1="584.9" y1="163.1" x2="1047.4" y2="163.1" gradientUnits="userSpaceOnUse">
<stop stop-color="#00C677"/>
<stop offset="1" stop-color="#F2F7F5"/>
</linearGradient>
<linearGradient id="paint37_linear_28_307" x1="601.3" y1="161.6" x2="1031" y2="161.6" gradientUnits="userSpaceOnUse">
<stop stop-color="#00C677"/>
<stop offset="1" stop-color="#F2F7F5"/>
</linearGradient>
<linearGradient id="paint38_linear_28_307" x1="617.7" y1="160.1" x2="1014.7" y2="160.1" gradientUnits="userSpaceOnUse">
<stop stop-color="#00C677"/>
<stop offset="1" stop-color="#F2F7F5"/>
</linearGradient>
<linearGradient id="paint39_linear_28_307" x1="634" y1="158.6" x2="998.3" y2="158.6" gradientUnits="userSpaceOnUse">
<stop stop-color="#00C677"/>
<stop offset="1" stop-color="#F2F7F5"/>
</linearGradient>
<linearGradient id="paint40_linear_28_307" x1="650.4" y1="157.1" x2="981.9" y2="157.1" gradientUnits="userSpaceOnUse">
<stop stop-color="#00C677"/>
<stop offset="1" stop-color="#F2F7F5"/>
</linearGradient>
<linearGradient id="paint41_linear_28_307" x1="666.8" y1="155.6" x2="965.6" y2="155.6" gradientUnits="userSpaceOnUse">
<stop stop-color="#00C677"/>
<stop offset="1" stop-color="#F2F7F5"/>
</linearGradient>
<linearGradient id="paint42_linear_28_307" x1="683.1" y1="154.1" x2="949.1" y2="154.1" gradientUnits="userSpaceOnUse">
<stop stop-color="#00C677"/>
<stop offset="1" stop-color="#F2F7F5"/>
</linearGradient>
<linearGradient id="paint43_linear_28_307" x1="699.5" y1="152.5" x2="932.9" y2="152.5" gradientUnits="userSpaceOnUse">
<stop stop-color="#00C677"/>
<stop offset="1" stop-color="#F2F7F5"/>
</linearGradient>
<linearGradient id="paint44_linear_28_307" x1="715.8" y1="151.1" x2="916.5" y2="151.1" gradientUnits="userSpaceOnUse">
<stop stop-color="#00C677"/>
<stop offset="1" stop-color="#F2F7F5"/>
</linearGradient>
<linearGradient id="paint45_linear_28_307" x1="732.2" y1="149.5" x2="900.2" y2="149.5" gradientUnits="userSpaceOnUse">
<stop stop-color="#00C677"/>
<stop offset="1" stop-color="#F2F7F5"/>
</linearGradient>
<linearGradient id="paint46_linear_28_307" x1="748.7" y1="148.1" x2="883.9" y2="148.1" gradientUnits="userSpaceOnUse">
<stop stop-color="#00C677"/>
<stop offset="1" stop-color="#F2F7F5"/>
</linearGradient>
<linearGradient id="paint47_linear_28_307" x1="765" y1="146.6" x2="867.5" y2="146.6" gradientUnits="userSpaceOnUse">
<stop stop-color="#00C677"/>
<stop offset="1" stop-color="#F2F7F5"/>
</linearGradient>
<linearGradient id="paint48_linear_28_307" x1="311.5" y1="355.8" x2="697.6" y2="355.8" gradientUnits="userSpaceOnUse">
<stop stop-color="#00C677"/>
<stop offset="1" stop-color="#F2F7F5"/>
</linearGradient>
<linearGradient id="paint49_linear_28_307" x1="325" y1="352.5" x2="677.5" y2="352.5" gradientUnits="userSpaceOnUse">
<stop stop-color="#00C677"/>
<stop offset="1" stop-color="#F2F7F5"/>
</linearGradient>
<linearGradient id="paint50_linear_28_307" x1="338.4" y1="349.2" x2="657.8" y2="349.2" gradientUnits="userSpaceOnUse">
<stop stop-color="#00C677"/>
<stop offset="1" stop-color="#F2F7F5"/>
</linearGradient>
<linearGradient id="paint51_linear_28_307" x1="351.7" y1="345.9" x2="638.2" y2="345.9" gradientUnits="userSpaceOnUse">
<stop stop-color="#00C677"/>
<stop offset="1" stop-color="#F2F7F5"/>
</linearGradient>
<linearGradient id="paint52_linear_28_307" x1="364.7" y1="342.6" x2="619.3" y2="342.6" gradientUnits="userSpaceOnUse">
<stop stop-color="#00C677"/>
<stop offset="1" stop-color="#F2F7F5"/>
</linearGradient>
<linearGradient id="paint53_linear_28_307" x1="377.4" y1="339.3" x2="600.7" y2="339.3" gradientUnits="userSpaceOnUse">
<stop stop-color="#00C677"/>
<stop offset="1" stop-color="#F2F7F5"/>
</linearGradient>
<linearGradient id="paint54_linear_28_307" x1="389.7" y1="336" x2="582.8" y2="336" gradientUnits="userSpaceOnUse">
<stop stop-color="#00C677"/>
<stop offset="1" stop-color="#F2F7F5"/>
</linearGradient>
<linearGradient id="paint55_linear_28_307" x1="401.5" y1="332.6" x2="565.8" y2="332.6" gradientUnits="userSpaceOnUse">
<stop stop-color="#00C677"/>
<stop offset="1" stop-color="#F2F7F5"/>
</linearGradient>
<linearGradient id="paint56_linear_28_307" x1="412.7" y1="329.3" x2="549.8" y2="329.3" gradientUnits="userSpaceOnUse">
<stop stop-color="#00C677"/>
<stop offset="1" stop-color="#F2F7F5"/>
</linearGradient>
<linearGradient id="paint57_linear_28_307" x1="422.9" y1="326" x2="535.2" y2="326" gradientUnits="userSpaceOnUse">
<stop stop-color="#00C677"/>
<stop offset="1" stop-color="#F2F7F5"/>
</linearGradient>
<linearGradient id="paint58_linear_28_307" x1="431.7" y1="322.8" x2="522.3" y2="322.8" gradientUnits="userSpaceOnUse">
<stop stop-color="#00C677"/>
<stop offset="1" stop-color="#F2F7F5"/>
</linearGradient>
<linearGradient id="paint59_linear_28_307" x1="437.9" y1="317.8" x2="511.5" y2="317.8" gradientUnits="userSpaceOnUse">
<stop stop-color="#00C677"/>
<stop offset="1" stop-color="#F2F7F5"/>
</linearGradient>
<linearGradient id="paint60_linear_28_307" x1="-159" y1="989.6" x2="1040.3" y2="989.6" gradientUnits="userSpaceOnUse">
<stop stop-color="#00C677"/>
<stop offset="1" stop-color="#F2F7F5"/>
</linearGradient>
<linearGradient id="paint61_linear_28_307" x1="-114" y1="986.5" x2="987.9" y2="986.5" gradientUnits="userSpaceOnUse">
<stop stop-color="#00C677"/>
<stop offset="1" stop-color="#F2F7F5"/>
</linearGradient>
<linearGradient id="paint62_linear_28_307" x1="-69" y1="983.5" x2="935.4" y2="983.5" gradientUnits="userSpaceOnUse">
<stop stop-color="#00C677"/>
<stop offset="1" stop-color="#F2F7F5"/>
</linearGradient>
<linearGradient id="paint63_linear_28_307" x1="-24.1001" y1="980.5" x2="883" y2="980.5" gradientUnits="userSpaceOnUse">
<stop stop-color="#00C677"/>
<stop offset="1" stop-color="#F2F7F5"/>
</linearGradient>
<linearGradient id="paint64_linear_28_307" x1="20.9" y1="977.5" x2="830.5" y2="977.5" gradientUnits="userSpaceOnUse">
<stop stop-color="#00C677"/>
<stop offset="1" stop-color="#F2F7F5"/>
</linearGradient>
<linearGradient id="paint65_linear_28_307" x1="65.8" y1="974.6" x2="778.1" y2="974.6" gradientUnits="userSpaceOnUse">
<stop stop-color="#00C677"/>
<stop offset="1" stop-color="#F2F7F5"/>
</linearGradient>
<linearGradient id="paint66_linear_28_307" x1="110.5" y1="971.7" x2="725.6" y2="971.7" gradientUnits="userSpaceOnUse">
<stop stop-color="#00C677"/>
<stop offset="1" stop-color="#F2F7F5"/>
</linearGradient>
<linearGradient id="paint67_linear_28_307" x1="155.1" y1="968.9" x2="673.3" y2="968.9" gradientUnits="userSpaceOnUse">
<stop stop-color="#00C677"/>
<stop offset="1" stop-color="#F2F7F5"/>
</linearGradient>
<linearGradient id="paint68_linear_28_307" x1="195.6" y1="966.3" x2="620.8" y2="966.3" gradientUnits="userSpaceOnUse">
<stop stop-color="#00C677"/>
<stop offset="1" stop-color="#F2F7F5"/>
</linearGradient>
<linearGradient id="paint69_linear_28_307" x1="231.2" y1="963.6" x2="568.5" y2="963.6" gradientUnits="userSpaceOnUse">
<stop stop-color="#00C677"/>
<stop offset="1" stop-color="#F2F7F5"/>
</linearGradient>
<linearGradient id="paint70_linear_28_307" x1="263.6" y1="959.3" x2="516" y2="959.3" gradientUnits="userSpaceOnUse">
<stop stop-color="#00C677"/>
<stop offset="1" stop-color="#F2F7F5"/>
</linearGradient>
<linearGradient id="paint71_linear_28_307" x1="293.7" y1="961.3" x2="463.7" y2="961.3" gradientUnits="userSpaceOnUse">
<stop stop-color="#00C677"/>
<stop offset="1" stop-color="#F2F7F5"/>
</linearGradient>
</defs>
</svg>
