<svg xmlns="http://www.w3.org/2000/svg" width="16" height="12" viewBox="0 0 16 12" fill="none">
  <path d="M12.3901 1.00813C10.6665 1.00813 9.36573 2.14634 8.84541 3.93496C8.0324 2.66667 7.38199 1.23577 7.02427 0H5.20313V4.78049C5.20313 5.72358 4.42264 6.50406 3.47955 6.50406C2.53646 6.50406 1.75598 5.72358 1.75598 4.78049V0.0325201H-0.00012207V4.81301C-0.00012207 6.79675 1.59337 8.39024 3.54459 8.39024C5.49581 8.39024 7.08931 6.79675 7.08931 4.81301V4C7.44703 4.71545 7.90232 5.49593 8.39012 6.17886L7.25191 11.4797H9.10557L9.88606 7.60976C10.6015 8.06504 11.4145 8.3252 12.3901 8.3252C14.3739 8.3252 15.9999 6.69919 15.9999 4.61789C15.9999 2.63415 14.3739 1.00813 12.3901 1.00813ZM12.3901 6.50406C11.6747 6.50406 10.9267 6.17886 10.3413 5.69106L10.5365 4.97561V4.94309C10.6665 4.1626 11.0893 2.86179 12.4226 2.86179C13.4308 2.86179 14.2438 3.6748 14.2438 4.68293C14.2113 5.69106 13.3332 6.50406 12.3901 6.50406Z" fill="#00C677"/>
</svg>