<svg xmlns="http://www.w3.org/2000/svg" width="16" height="16" viewBox="0 0 16 16" fill="none">
  <path d="M13.6561 0H2.34363C1.05127 0 -0.00012207 1.05139 -0.00012207 2.34375V13.6562C-0.00012207 14.9486 1.05127 16 2.34363 16H13.6561C14.9485 16 15.9999 14.9486 15.9999 13.6562V2.34375C15.9999 1.05139 14.9485 0 13.6561 0ZM15.0624 13.6562C15.0624 14.4316 14.4315 15.0625 13.6561 15.0625H2.34363C1.56824 15.0625 0.937378 14.4316 0.937378 13.6562V2.34375C0.937378 1.56836 1.56824 0.9375 2.34363 0.9375H13.6561C14.4315 0.9375 15.0624 1.56836 15.0624 2.34375V13.6562Z" fill="#008753"/>
  <path d="M7.53113 6.59375C7.53113 5.55981 6.69006 4.71875 5.65613 4.71875H2.84363V11.2812H5.65613C6.69006 11.2812 7.53113 10.4402 7.53113 9.40625C7.53113 8.84668 7.28442 8.34387 6.89429 8C7.28442 7.65613 7.53113 7.15332 7.53113 6.59375ZM6.59363 9.40625C6.59363 9.92322 6.1731 10.3438 5.65613 10.3438H3.78113V8.46875H5.65613C6.1731 8.46875 6.59363 8.88928 6.59363 9.40625ZM3.78113 7.53125V5.65625H5.65613C6.1731 5.65625 6.59363 6.07678 6.59363 6.59375C6.59363 7.11072 6.1731 7.53125 5.65613 7.53125H3.78113Z" fill="#008753"/>
  <path d="M10.8124 6.59375C9.52002 6.59375 8.46863 7.64514 8.46863 8.9375C8.46863 10.2299 9.52002 11.2812 10.8124 11.2812C11.6465 11.2812 12.4243 10.8324 12.8423 10.1097L12.0308 9.64026C11.7798 10.0742 11.3129 10.3438 10.8124 10.3438C10.2012 10.3438 9.67993 9.9519 9.48645 9.40625H13.1561V8.9375C13.1561 7.64514 12.1047 6.59375 10.8124 6.59375ZM9.48645 8.46875C9.67993 7.9231 10.2012 7.53125 10.8124 7.53125C11.4236 7.53125 11.9448 7.9231 12.1383 8.46875H9.48645Z" fill="#008753"/>
  <path d="M8.93738 4.71875H12.6874V5.65625H8.93738V4.71875Z" fill="#008753"/>
</svg>
