<svg xmlns="http://www.w3.org/2000/svg" width="16" height="16" viewBox="0 0 16 16" fill="none">
  <path d="M7.99996 0C3.58867 0 -0.00012207 3.58879 -0.00012207 8C-0.00012207 12.4112 3.58867 16 7.99996 16C12.4113 16 16 12.4112 16 8C16 3.58879 12.4113 0 7.99996 0ZM13.2133 3.77299C14.1114 4.87851 14.6643 6.2739 14.7103 7.79499C13.0467 7.45058 11.5402 7.491 10.2103 7.75175C9.96952 7.18863 9.72024 6.65214 9.46865 6.14511C10.917 5.52118 12.1778 4.72428 13.2133 3.77299ZM12.3121 2.85706C11.2842 3.79525 10.0931 4.48991 8.87342 5.00276C7.97821 3.36572 7.12171 2.13295 6.59995 1.43238C7.05175 1.33613 7.51991 1.28449 7.99996 1.28449C9.64043 1.28449 11.1446 1.87656 12.3121 2.85706ZM5.30261 1.8519C5.69661 2.36244 6.63506 3.64077 7.64313 5.45953C5.1096 6.28494 2.65125 6.42401 1.46994 6.43694C1.96233 4.38004 3.40276 2.6887 5.30261 1.8519ZM1.29139 7.72469C1.30407 7.72469 1.31631 7.72478 1.32924 7.72478C2.1455 7.72478 3.64099 7.66989 5.4016 7.34885C6.40608 7.16568 7.35857 6.91914 8.25233 6.6136C8.48499 7.07731 8.71628 7.56644 8.94056 8.07913C7.68912 8.48203 6.63378 9.06176 5.79783 9.63739C4.39602 10.6027 3.41398 11.6737 2.87774 12.3359C1.88492 11.1651 1.28437 9.65177 1.28437 8C1.28437 7.90769 1.28763 7.81615 1.29139 7.72469ZM3.80335 13.2372C4.265 12.6559 5.20465 11.598 6.5639 10.6696C7.48762 10.0387 8.44329 9.56991 9.42712 9.26223C9.99795 10.7418 10.4853 12.3766 10.7758 14.1125C9.9291 14.4985 8.98971 14.7155 7.99996 14.7155C6.41301 14.7155 4.95392 14.161 3.80335 13.2372ZM11.9576 13.4208C11.6581 11.8266 11.2115 10.3276 10.6953 8.95763C11.9652 8.74338 13.2777 8.78757 14.6257 9.09036C14.335 10.8621 13.3491 12.4021 11.9576 13.4208Z" fill="#00C677"/>
</svg>