<svg xmlns="http://www.w3.org/2000/svg" width="18" height="18" viewBox="0 0 18 18" fill="none">
  <path d="M12.7332 17H5.26654C2.91988 17 0.999878 15.08 0.999878 12.7333V5.26667C0.999878 2.92 2.91988 1 5.26654 1H12.7332C15.0799 1 16.9999 2.92 16.9999 5.26667V12.7333C16.9999 15.08 15.0799 17 12.7332 17Z" stroke="#008753" stroke-miterlimit="10" stroke-linecap="round" stroke-linejoin="round"/>
  <path d="M14.3331 9.0002H11.6665V7.50686C11.6665 7.13353 11.9331 6.86686 12.3065 6.86686H13.7998V4.2002H11.6665C10.1731 4.2002 8.99979 5.37353 8.99979 6.86686V9.0002H6.86646V11.6669H8.99979V17.0002H11.6665V11.6669H13.2665L14.3331 9.0002Z" stroke="#008753" stroke-miterlimit="10" stroke-linecap="round" stroke-linejoin="round"/>
</svg>
