<svg xmlns="http://www.w3.org/2000/svg" width="16" height="16" viewBox="0 0 16 16" fill="none">
  <mask id="mask0_17_91" style="mask-type:luminance" maskUnits="userSpaceOnUse" x="0" y="0" width="16" height="16">
    <path d="M0 0H16V16H0V0Z" fill="white"/>
  </mask>
  <g mask="url(#mask0_17_91)">
    <path d="M4.37524 13.2188H3.43774C3.09256 13.2188 2.81274 12.9389 2.81274 12.5938V6.78125C2.81274 6.43606 3.09256 6.15625 3.43774 6.15625H4.37524C4.7204 6.15625 5.00024 6.43606 5.00024 6.78125V12.5938C5.00024 12.9389 4.7204 13.2188 4.37524 13.2188Z" fill="#00C677"/>
    <path d="M3.93803 5.1875C3.22847 5.1875 2.65625 4.6135 2.65625 3.90616C2.65625 3.199 3.22847 2.625 3.93803 2.625C4.64478 2.625 5.21856 3.199 5.21856 3.90616C5.21856 4.6135 4.64478 5.1875 3.93803 5.1875Z" fill="#00C677"/>
    <path d="M12.5625 13.2188H11.6562C11.3111 13.2188 11.0312 12.9389 11.0312 12.5938V9.77059C11.0312 8.95431 10.9949 7.90416 9.87212 7.90416C8.73372 7.90416 8.5 8.79384 8.5 9.71216V12.5938C8.5 12.9389 8.22019 13.2188 7.875 13.2188H7C6.65481 13.2188 6.375 12.9389 6.375 12.5938V6.78125C6.375 6.43606 6.65481 6.15625 7 6.15625H7.875C8.22019 6.15625 8.5 6.43606 8.5 6.78125V7.11691H8.50203C8.79372 6.56353 9.50797 6.03125 10.5723 6.03125C12.7871 6.03125 13.1875 7.43744 13.1875 9.33325V12.5938C13.1875 12.9389 12.9077 13.2188 12.5625 13.2188Z" fill="#00C677"/>
    <path d="M15.375 13.5C15.375 14.5355 14.5355 15.375 13.5 15.375H2.5C1.46447 15.375 0.625 14.5355 0.625 13.5V2.5C0.625 1.46447 1.46447 0.625 2.5 0.625H13.5C14.5355 0.625 15.375 1.46447 15.375 2.5V10.3438" stroke="#00C677" stroke-miterlimit="10" stroke-linecap="round" stroke-linejoin="round"/>
  </g>
</svg>