<svg xmlns="http://www.w3.org/2000/svg" width="15" height="16" viewBox="0 0 15 16" fill="none">
  <path d="M14.504 9.26264C14.9809 5.24818 14.2749 2.71375 13.0013 1.56742L13.002 1.56676C10.9465 -0.39085 4.0046 -0.680594 1.54543 1.65468C0.441075 2.797 0.0520851 4.47353 0.00945605 6.54903C-0.033173 8.6252 -0.0837951 12.5144 3.54034 13.5695H3.54367L3.54034 15.1807C3.54034 15.1807 3.5157 15.8335 3.93266 15.9647C4.40957 16.1193 4.62538 15.8162 6.10874 14.0444C8.58922 14.2596 10.4942 13.7667 10.7107 13.6947C11.2116 13.5269 14.0457 13.1519 14.504 9.26264ZM6.35319 12.9108C6.35319 12.9108 4.78325 14.8684 4.29501 15.3766C4.13515 15.5418 3.95997 15.5264 3.96264 15.1987C3.96264 14.9836 3.97463 12.5238 3.97463 12.5238C0.902002 11.6432 1.08318 8.33146 1.11648 6.59899C1.14978 4.86585 1.46684 3.44643 2.40201 2.49061C4.55944 0.467726 10.6454 0.919994 12.196 2.37738C14.0917 4.05789 13.417 8.80571 13.421 8.96756C13.0313 12.214 10.7347 12.4199 10.3124 12.5604C10.1319 12.6203 8.45667 13.0513 6.35319 12.9108Z" fill="#00C677"/>
  <path d="M7.22163 2.87109C6.96519 2.87109 6.96519 3.27074 7.22163 3.27407C9.21121 3.28939 10.8498 4.67617 10.8677 7.21992C10.8677 7.48835 11.2607 7.48502 11.2574 7.21659C11.2361 4.47568 9.44633 2.88641 7.22163 2.87109Z" fill="#00C677"/>
  <path d="M9.83877 6.7977C9.83277 7.0628 10.2251 7.07546 10.2284 6.80703C10.2611 5.29569 9.32922 4.05079 7.57809 3.91957C7.32165 3.90092 7.29501 4.3039 7.55078 4.32255C9.06944 4.43778 9.86941 5.4742 9.83877 6.7977Z" fill="#00C677"/>
  <path d="M9.41925 8.51671C9.0902 8.32621 8.75517 8.44477 8.61662 8.63194L8.32688 9.00694C8.17967 9.19744 7.90458 9.17213 7.90458 9.17213C5.89702 8.64126 5.36016 6.54045 5.36016 6.54045C5.36016 6.54045 5.33552 6.25603 5.51935 6.1035L5.8817 5.80376C6.06287 5.65989 6.17744 5.31353 5.99294 4.97316C5.50004 4.08262 5.169 3.77555 5.00048 3.53976C4.8233 3.31796 4.55687 3.268 4.27978 3.41787H4.27379C3.69763 3.7549 3.06685 4.38568 3.26867 5.03511C3.61303 5.71984 4.24581 7.90258 6.2627 9.55179C7.21053 10.3318 8.71054 11.1311 9.34731 11.3156L9.3533 11.3249C9.98075 11.534 10.5909 10.8786 10.9166 10.2851V10.2805C11.0611 9.9934 11.0132 9.72164 10.802 9.5438C10.4277 9.17879 9.86286 8.77581 9.41925 8.51671Z" fill="#00C677"/>
  <path d="M7.85248 5.40633C8.49258 5.44363 8.80297 5.77801 8.83628 6.46473C8.84827 6.73316 9.23792 6.71451 9.22593 6.44608C9.1833 5.54954 8.71572 5.04998 7.87379 5.00336C7.61735 4.98804 7.59337 5.39101 7.85248 5.40633Z" fill="#00C677"/>
</svg>