<svg xmlns="http://www.w3.org/2000/svg" width="16" height="16" viewBox="0 0 16 16" fill="none">
  <path d="M8 1.44133C10.136 1.44133 10.3893 1.44933 11.2327 1.488C12.1047 1.528 13.0027 1.72667 13.638 2.362C14.2793 3.00333 14.472 3.89267 14.512 4.76733C14.5507 5.61067 14.5587 5.864 14.5587 8C14.5587 10.136 14.5507 10.3893 14.512 11.2327C14.4727 12.1 14.2693 13.0067 13.638 13.638C12.9967 14.2793 12.108 14.472 11.2327 14.512C10.3893 14.5507 10.136 14.5587 8 14.5587C5.864 14.5587 5.61067 14.5507 4.76733 14.512C3.90667 14.4727 2.988 14.2647 2.362 13.638C1.724 13 1.528 12.102 1.488 11.2327C1.44933 10.3893 1.44133 10.136 1.44133 8C1.44133 5.864 1.44933 5.61067 1.488 4.76733C1.52733 3.90333 1.73267 2.99133 2.362 2.362C3.002 1.722 3.89467 1.528 4.76733 1.488C5.61067 1.44933 5.864 1.44133 8 1.44133ZM8 0C5.82733 0 5.55467 0.00933333 4.70133 0.048C3.46467 0.104667 2.23667 0.448667 1.34267 1.34267C0.445333 2.24 0.104667 3.46533 0.048 4.70133C0.00933333 5.55467 0 5.82733 0 8C0 10.1727 0.00933333 10.4453 0.048 11.2987C0.104667 12.534 0.45 13.7653 1.34267 14.6573C2.23933 15.554 3.46667 15.8953 4.70133 15.952C5.55467 15.9907 5.82733 16 8 16C10.1727 16 10.4453 15.9907 11.2987 15.952C12.5347 15.8953 13.764 15.5507 14.6573 14.6573C15.5553 13.7593 15.8953 12.5347 15.952 11.2987C15.9907 10.4453 16 10.1727 16 8C16 5.82733 15.9907 5.55467 15.952 4.70133C15.8953 3.46467 15.5507 2.236 14.6573 1.34267C13.762 0.447333 12.5313 0.104 11.2987 0.048C10.4453 0.00933333 10.1727 0 8 0Z" fill="#008753"/>
  <path d="M8.00009 3.89258C5.73142 3.89258 3.89209 5.73191 3.89209 8.00058C3.89209 10.2692 5.73142 12.1086 8.00009 12.1086C10.2688 12.1086 12.1081 10.2692 12.1081 8.00058C12.1081 5.73191 10.2688 3.89258 8.00009 3.89258ZM8.00009 10.6672C6.52742 10.6672 5.33342 9.47325 5.33342 8.00058C5.33342 6.52791 6.52742 5.33391 8.00009 5.33391C9.47276 5.33391 10.6668 6.52791 10.6668 8.00058C10.6668 9.47325 9.47276 10.6672 8.00009 10.6672Z" fill="#008753"/>
  <path d="M12.2708 4.68855C12.801 4.68855 13.2308 4.25875 13.2308 3.72855C13.2308 3.19836 12.801 2.76855 12.2708 2.76855C11.7406 2.76855 11.3108 3.19836 11.3108 3.72855C11.3108 4.25875 11.7406 4.68855 12.2708 4.68855Z" fill="#008753"/>
</svg>
