<svg width="26" height="26" viewBox="0 0 26 26" fill="none" xmlns="http://www.w3.org/2000/svg">
<path d="M13.9979 17.9737L10.0188 21.9529C10.0188 21.9529 10.0188 21.953 10.0187 21.953C10.0187 21.953 10.0187 21.9531 10.0186 21.9531C8.3731 23.5987 5.69551 23.5988 4.04983 21.9531C3.2526 21.1558 2.81365 20.0959 2.81365 18.9686C2.81365 17.8414 3.2526 16.7816 4.04955 15.9844C4.04964 15.9843 4.04974 15.9842 4.04983 15.9841L8.02897 12.0049C8.57831 11.4555 8.57831 10.5646 8.02888 10.0153C7.47954 9.46594 6.5887 9.46594 6.03926 10.0153L2.06012 13.9945C2.05984 13.9948 2.05956 13.9952 2.05928 13.9954C0.731271 15.3239 -0.00012207 17.0901 -0.00012207 18.9686C-0.00012207 20.8475 0.731552 22.614 2.06021 23.9427C3.43165 25.314 5.23293 25.9997 7.0343 25.9997C8.83568 25.9997 10.6371 25.314 12.0083 23.9427C12.0084 23.9427 12.0084 23.9425 12.0084 23.9425L15.9875 19.9633C16.5369 19.4139 16.5369 18.5231 15.9874 17.9737C15.4382 17.4243 14.5474 17.4243 13.9979 17.9737Z" fill="white"/>
<path d="M26.0066 7.03106C26.0066 5.15212 25.2748 3.38563 23.9462 2.05697C21.2034 -0.685704 16.7406 -0.68561 13.9981 2.05697C13.998 2.05716 13.9978 2.05725 13.9977 2.05744L10.0186 6.03639C9.46921 6.58574 9.46921 7.47667 10.0186 8.02601C10.2935 8.30082 10.6534 8.43813 11.0135 8.43813C11.3735 8.43813 11.7336 8.30073 12.0083 8.02601L15.9873 4.04706C15.9874 4.04687 15.9876 4.04678 15.9878 4.04659C17.6333 2.4011 20.3109 2.401 21.9565 4.04659C22.7537 4.84382 23.1928 5.90377 23.1928 7.03106C23.1928 8.15826 22.7539 9.21802 21.9568 10.0153L21.9565 10.0155L17.9774 13.9948C17.4281 14.5441 17.4281 15.4349 17.9775 15.9844C18.2522 16.2591 18.6123 16.3965 18.9723 16.3965C19.3323 16.3965 19.6924 16.2591 19.9671 15.9844L23.9462 12.0052C23.9465 12.0049 23.9468 12.0045 23.9471 12.0042C25.2751 10.6757 26.0066 8.90953 26.0066 7.03106Z" fill="white"/>
<path d="M8.02914 17.9739C8.30386 18.2486 8.66393 18.386 9.0239 18.386C9.38397 18.386 9.74404 18.2486 10.0188 17.9739L17.9772 10.0154C18.5267 9.46605 18.5267 8.57521 17.9772 8.02578C17.4279 7.47643 16.537 7.47643 15.9876 8.02578L8.02914 15.9842C7.47971 16.5337 7.47971 17.4245 8.02914 17.9739Z" fill="white"/>
</svg>
