<svg width="87" height="90" viewBox="0 0 87 90" fill="none" xmlns="http://www.w3.org/2000/svg">
<path d="M86.9182 28.6336C83.1317 18.9356 76.0997 10.8505 67.0204 5.75595C57.9411 0.661382 47.3762 -1.12745 37.1258 0.69425C26.8755 2.51595 17.5739 7.83547 10.8059 15.7464C4.03792 23.6574 0.222352 33.6703 0.00930139 44.0791C-0.203749 54.4879 3.1989 64.6486 9.63749 72.8299C16.0761 81.0111 25.1522 86.7068 35.3195 88.9464C45.4867 91.1861 56.116 89.831 65.3961 85.1123C74.6763 80.3935 82.0332 72.6029 86.2133 63.0679L85.1018 62.5806C81.0344 71.8584 73.8759 79.4389 64.846 84.0304C55.8162 88.6219 45.4736 89.9404 35.5805 87.7612C25.6875 85.582 16.8562 80.0399 10.5912 72.0793C4.32629 64.1187 1.01541 54.232 1.22272 44.104C1.43002 33.9759 5.14269 24.233 11.7281 16.5354C18.3136 8.83781 27.3643 3.66176 37.3382 1.88919C47.3121 0.116626 57.5921 1.85721 66.4265 6.81438C75.261 11.7716 82.1033 19.6386 85.7876 29.075L86.9182 28.6336Z" fill="#00C677"/>
</svg>
